/* XPM */
static char *_640705936009[] = {
/* columns rows colors chars-per-pixel */
"32 32 166 2 ",
"   c #070956",
".  c #09065F",
"X  c #070958",
"o  c #0B1157",
"O  c #0B105D",
"+  c #1A1457",
"@  c #293143",
"#  c #000066",
"$  c #090C65",
"%  c #070A69",
"&  c #0A1163",
"*  c #0E176D",
"=  c #101264",
"-  c #191C66",
";  c #101769",
":  c #191C6F",
">  c #151C6C",
",  c #111D71",
"<  c #15236B",
"1  c #1A226E",
"2  c #1C2271",
"3  c #1E2D70",
"4  c #1F2B79",
"5  c #2A2D6A",
"6  c #26386F",
"7  c #222A74",
"8  c #253470",
"9  c #283573",
"0  c #2D3C76",
"q  c #253279",
"w  c #2C3A7A",
"e  c #303D77",
"r  c #2F477F",
"t  c #304176",
"y  c #32457C",
"u  c #575456",
"i  c #273B83",
"p  c #354681",
"a  c #3C4686",
"s  c #354B86",
"d  c #35458A",
"f  c #3C5387",
"g  c #375090",
"h  c #3B6F9F",
"j  c #404783",
"k  c #42488F",
"l  c #41578C",
"z  c #5F5F8E",
"x  c #50649B",
"c  c #50689A",
"v  c #5D699B",
"b  c #4E749B",
"n  c #507897",
"m  c #56739F",
"M  c #55799C",
"N  c #6D7C9E",
"B  c #63739B",
"V  c #767690",
"C  c #787C95",
"Z  c #4476A6",
"A  c #4C79A2",
"S  c #5D73A5",
"D  c #577DA0",
"F  c #5B78A1",
"G  c #5A7EB5",
"H  c #6C78A9",
"J  c #6275A3",
"K  c #5B84AB",
"L  c #5784B1",
"P  c #5C84B6",
"I  c #5B89B5",
"U  c #5180BE",
"Y  c #6186AB",
"T  c #798BA8",
"R  c #6C86B4",
"E  c #678CB5",
"W  c #6784BC",
"Q  c #6B8AB8",
"!  c #798DBE",
"~  c #6991B7",
"^  c #6792B8",
"/  c #6A93BA",
"(  c #7297B9",
")  c #7B90BA",
"_  c #759DBD",
"`  c #5D92C4",
"'  c #6B96C1",
"]  c #6E9BC4",
"[  c #659BC9",
"{  c #6E9CC9",
"}  c #719BC3",
"|  c #719EC8",
" . c #73A1C6",
".. c #74A2CD",
"X. c #7CA6CD",
"o. c #75A5D4",
"O. c #79A6D3",
"+. c #7BAAD6",
"@. c #7DACDA",
"#. c #7FB0DF",
"$. c #77ACE0",
"%. c #7CAFE0",
"&. c #A49BBC",
"*. c #83A1C2",
"=. c #84ABCF",
"-. c #85A5CB",
";. c #91AECD",
":. c #81ADD6",
">. c #88ACD6",
",. c #81AED9",
"<. c #91ABD0",
"1. c #8CB2D5",
"2. c #84B1DB",
"3. c #8AB4DC",
"4. c #98B5D2",
"5. c #9DB9D6",
"6. c #9CB3DF",
"7. c #93BADE",
"8. c #9FBEDC",
"9. c #83B4E3",
"0. c #8AB6E2",
"q. c #8EBBE4",
"w. c #81B7EC",
"e. c #86BAED",
"r. c #8BBCEB",
"t. c #94BCE4",
"y. c #99BEE1",
"u. c #89BDF1",
"i. c #9FC2DE",
"p. c #95C0E7",
"a. c #9EC1E3",
"s. c #95C4EF",
"d. c #9FC4E9",
"f. c #89C2F5",
"g. c #8DC4F9",
"h. c #9AC7F1",
"j. c #9DCAF2",
"k. c #96CBFB",
"l. c #9ACBFA",
"z. c #97D0FF",
"x. c #A4C4E3",
"c. c #A9C7E5",
"v. c #A7CEE7",
"b. c #ABC9E5",
"n. c #A4C9EC",
"m. c #A9CEEF",
"M. c #B0CDE7",
"N. c #B3CFEA",
"B. c #B2D1ED",
"V. c #A2CCF1",
"C. c #A6D0F5",
"Z. c #AED1F1",
"A. c #A1D5FB",
"S. c #A8D2FC",
"D. c #ABDBFF",
"F. c #B5D5F3",
"G. c #B0D6FA",
"H. c #B4DAFD",
"J. c #BCDCFA",
"K. c #BBE7FF",
"L. c #BFE8FF",
"P. c #B9F0FF",
"I. c #C2DCF4",
"U. c #C9EFFF",
"Y. c #D0E9FF",
"T. c #CCF0FF",
/* pixels */
"# # # # # # # # # # # # # # # # # # # # # # # # # # # # # # # # ",
"# # # # # # # # # # # # # # ; d J T 5.<.S w # # # # # # # # # # ",
"# # # # # # # # # # # # q Q F.Y.Y.I.B.B.J.G.-.: # # # # # # # # ",
"# # # # # # $ 7 j k w E G.I.N.x.x.x.x.x.a.7.C.D.O # # # # # # # ",
"# # # # 2 S a.Z.m.v.h.V.x.8.t.x.b.N.b.x.i.n.t.j.3.# # # # # # # ",
"# # > b 9.[ Z h ` +.t.7.3.t.x.x.b.b.c.x.n.-.1.7.s.i # # # # # # ",
"# # 1 p r L A / 9.3.3.3.7.y.a.x.c.b.b.Z.;.u @ 0.h.g # # # # # # ",
"# # # # # # K e.2.2.>.3.7.y.a.y.7.7.7.q.4.C V t.p.5.v a 7 # # # ",
"# # # # # X 9.9.2.,.>.3.3.3.,.+.o.o.o.o.3.D.F.O.2.q.A.K.H # # # ",
"# # # # # ..u.,.2.,.,.2.+.o.o.+.+.+.+.+.+.2.9.]  .>.6.&.X # # # ",
"# # # # e f.+.2.,.:.@.@.o.+.@.+.@.@.+.2.2.%.E m W J v + # # # # ",
"# # # # / 9.:.2.,.#.o.^ O.+.+.@.+.+.9.O.] ' n % # # # # # # # # ",
"# # # < ..,.@.2.2.o.D ( n.2.e.h.} / Y K b I U & # # # # # # # # ",
"# # # t o.#.2.2.+.Y K n.U.U.*.9 > $ # * , % # # # # # # # # # # ",
"# # # l ..#.:.2./ / y B N 5 . # # # # # # # # # # # # # # # # # ",
"# # # l ] #.2.O.] 6 # # # # # # # # # # # # # # # # # # # # # # ",
"# # # s / @.2.+.M # # # # # # # # # # # # # # # # # # # # # # # ",
"# # # 3 / ..9.#.0 # # # # # # # # # # # # # # # # # # # # # # # ",
"# # # $ Y ] 9.3.q # # # # # # # # # # # # # # # # # # # # # # # ",
"# # # # t ..O.s.q # # # # # # # # # # # # # # # # # # # # # # # ",
"# # # # # Y o.l.c # # # # % 4 x ) x.R $ # # # # # # # # # # # # ",
"# # # # #   } e.j.& # # p @.h.H.T.! 2 # # # # # # # # # # # # # ",
"# # # # # # - L z.n.e P f.@.r.C.3 # # # # # # # # # # # # # # # ",
"# # # # # # # $ 9 r.K.t.o.@.:.= # # # # # # # # # # # # # # # # ",
"# # # # # # # # # X :.d.8.S.< # # # # # # # # # # # # # # # # # ",
"# # # # # # # # # # f w.=.1.$ # # # # # # # # # # # # # # # # # ",
"# # # # # # # # # # 0 u.@.{ % # # # # # # # # # # # # # # # # # ",
"# # # # # # # # # # < 2.9.{ # # # # # # # # # # # # # # # # # # ",
"# # # # # # # # # # # / k.G # # # # # # # # # # # # # # # # # # ",
"# # # # # # # # # # # o f.' # # # # # # # # # # # # # # # # # # ",
"# # # # # # # # # # # # 1 F & # # # # # # # # # # # # # # # # # ",
"# # # # # # # # # # # # # 7 & # # # # # # # # # # # # # # # # # "
};
