/* XPM */
static char *_640706046943[] = {
/* columns rows colors chars-per-pixel */
"32 32 216 2 ",
"   c #000066",
".  c #030367",
"X  c #050568",
"o  c #060568",
"O  c #060668",
"+  c #4A477E",
"@  c #4D4A7F",
"#  c #FE7700",
"$  c #F87B00",
"%  c #FF7B00",
"&  c #F18700",
"*  c #F98000",
"=  c #F88300",
"-  c #F98300",
";  c #F98500",
":  c #FB8600",
">  c #FB8700",
",  c #F08B00",
"<  c #F48900",
"1  c #F78800",
"2  c #F38C00",
"3  c #F58C00",
"4  c #F88800",
"5  c #FA8900",
"6  c #F98A00",
"7  c #F98B00",
"8  c #FA8B00",
"9  c #FB8B00",
"0  c #FE8B00",
"q  c #FD8C00",
"w  c #FF8D00",
"e  c #FC8E00",
"r  c #F69000",
"t  c #F69100",
"y  c #F49300",
"u  c #F99000",
"i  c #FD9100",
"p  c #F89500",
"a  c #FF9500",
"s  c #FF9600",
"d  c #FF9700",
"f  c #FF9900",
"g  c #FE9A00",
"h  c #FF9A00",
"j  c #FF9B00",
"k  c #FC9905",
"l  c #FC960D",
"z  c #FD9909",
"x  c #FF9A0A",
"c  c #FB9C09",
"v  c #FF9D09",
"b  c #FD9810",
"n  c #FE9E11",
"m  c #FC9F13",
"M  c #FC9D18",
"N  c #FDA313",
"B  c #FEA416",
"V  c #FDA118",
"C  c #FBA926",
"Z  c #F9AA2C",
"A  c #FDA92D",
"S  c #FAAD30",
"D  c #F8AD35",
"F  c #F7B23F",
"G  c #F7AF48",
"H  c #F8B544",
"J  c #FAB949",
"K  c #F8BC4F",
"L  c #F5BB57",
"P  c #F4BC5A",
"I  c #F4BD5E",
"U  c #F6BF5E",
"Y  c #F4C367",
"T  c #F2C269",
"R  c #F4C168",
"E  c #F4C76F",
"W  c #F1C573",
"Q  c #F6C976",
"!  c #F1CB7C",
"~  c #4D4980",
"^  c #4D4A80",
"/  c #4F4B80",
"(  c #4E4B81",
")  c #4F4C80",
"_  c #4F4C81",
"`  c #524E82",
"'  c #555183",
"]  c #555283",
"[  c #7D788F",
"{  c #7E7990",
"}  c #807A92",
"|  c #817B92",
" . c #817C92",
".. c #898395",
"X. c #8A8495",
"o. c #958F97",
"O. c #989198",
"+. c #98929A",
"@. c #A0999C",
"#. c #C1B9A6",
"$. c #C4BCA7",
"%. c #C7BFA7",
"&. c #C7BEAA",
"*. c #C7BFAB",
"=. c #EFCD83",
"-. c #F3CF80",
";. c #EED28E",
":. c #F4D287",
">. c #EBD79E",
",. c #F2D693",
"<. c #C8C0A8",
"1. c #CBC2AB",
"2. c #CCC3A9",
"3. c #CEC6AB",
"4. c #CCC4AC",
"5. c #D3CAAD",
"6. c #D4CBAE",
"7. c #D5CCAE",
"8. c #D9D0AE",
"9. c #DCD3AF",
"0. c #DDD4AF",
"q. c #DED5AF",
"w. c #DDD3B1",
"e. c #DED5B1",
"r. c #DFD6B1",
"t. c #ECDAA5",
"y. c #EDDEA7",
"u. c #EADEAB",
"i. c #F1DBA1",
"p. c #F1DDA2",
"a. c #F1DDA3",
"s. c #F1DFA8",
"d. c #E2D8B1",
"f. c #E2D8B3",
"g. c #E4DAB1",
"h. c #E7DDB1",
"j. c #E9DEB0",
"k. c #E8DEB2",
"l. c #E9DEB2",
"z. c #E9DFB2",
"x. c #E8DEB3",
"c. c #E9DFB3",
"v. c #E9DFB4",
"b. c #E8DFB5",
"n. c #EAE0B3",
"m. c #E9E0B4",
"M. c #EAE0B4",
"N. c #EBE0B4",
"B. c #EBE1B4",
"V. c #EAE0B5",
"C. c #EBE1B5",
"Z. c #E8E0B6",
"A. c #E9E0B7",
"S. c #E9E1B7",
"D. c #EBE2B7",
"F. c #ECE2B5",
"G. c #EEE3B4",
"H. c #EEE3B5",
"J. c #ECE2B6",
"K. c #EDE3B6",
"L. c #EDE3B7",
"P. c #EEE3B6",
"I. c #EEE4B5",
"U. c #EEE4B6",
"Y. c #EFE4B6",
"T. c #EEE4B7",
"R. c #EFE4B7",
"E. c #EFE5B7",
"W. c #E6E2BE",
"Q. c #E6E3BF",
"!. c #E8E1B8",
"~. c #E8E1B9",
"^. c #E8E3BB",
"/. c #EEE4B8",
"(. c #EFE5B8",
"). c #EEE5BA",
"_. c #E8E3BD",
"`. c #E8E3BE",
"'. c #EDE6BC",
"]. c #EEE6BC",
"[. c #EEE7BD",
"{. c #EDE7BE",
"}. c #EDE8BF",
"|. c #F0E3B3",
" X c #E7E5C2",
".X c #E7E6C4",
"XX c #E6E7C7",
"oX c #E7E7C7",
"OX c #EBE7C2",
"+X c #ECE7C0",
"@X c #EDE8C0",
"#X c #EDE8C1",
"$X c #EEE8C1",
"%X c #EDE9C3",
"&X c #E9E8C5",
"*X c #ECEAC5",
"=X c #EDEBC7",
"-X c #E7E9CB",
";X c #E6EACE",
":X c #ECEBCA",
">X c #EAECCA",
",X c #EDECC9",
"<X c #EDECCA",
"1X c #ECECCB",
"2X c #ECEDCD",
"3X c #E5EAD0",
"4X c #E6EAD0",
"5X c #E5ECD2",
"6X c #E4EED6",
"7X c #ECEED0",
"8X c #ECEFD0",
"9X c #EBF0D3",
"0X c #ECF0D3",
"qX c #E3F2E5",
"wX c #E8F7E6",
"eX c #E9FAEC",
/* pixels */
"                                                                ",
"            X ` O.2.g.z.z.v.z.v.v.z.z.v.v.z.q.$.O.@ X           ",
"          + <.z.z.v.z.v.v.z.v.z.z.~.5XXXh.z.z.v.z.C.4.(         ",
"        { z.v.z.v.z.v.z.z.v.z.v.~.h.P -.OXz.v.z.h.K././. .      ",
"      { h.v.z.v.z.v.z.v.v.z.v.v.5XT % c Q.~.z.v.!.K.E./.E.}     ",
"    ( v.v.z.v.z.v.z.v.z.z.v.v.b.-XF : q ! qX5X>X<XE.K./.E.K.(   ",
"  o 5.v.z.v.z.v.z.v.z.v.z._.5X6X5XZ 7 7 C ;.T G E $X/.K./.K.7.o ",
"  ] C.h.v.z.v.z.v.z.v.z._.>.I L H x t t f i 7 $ q |.OXz.K.E./.` ",
"  @.z.v.z.v.z.v.z.v.z.!.-XZ # : 1 f j j f t & 0 U $XC.h.v.K.E.O.",
"  3.z.z.v.z.v.z.v.z.z.v..XW l : , j f f f a M :.0X}.z.h.v././.*.",
"  d.v.z.z.v.z.v.z.v.v.z.z.XXu.T V a f f f q K wX/.E.K.K.E.K.E.w.",
"  v.z.v.v.z.v.z.v.z.v.z.z.v.*XwXJ 7 p a u , x t.2XE.E.E.K././.d.",
"  z.z.v.z.v.z.v.h.v.v.C.K.K.$X|.B 3 1 N k 1 = D <X/.K.E./.E.E.e.",
"  v.v.z.v.z.v.z.C.K.E./.E./.2X:.7 * N /.s.A * N }.$X/.E.E./.C.9.",
"  v.z.v.h.z.C.K.E.E.E.E.E.E.*Xi.x l p.0X2X$XQ ,.$XE.K././.v.h.e.",
"  z.v.z.v.K.E.E.K./.K./.K./.K.+Xt.y.:XK.K.{.8X*XK.E.E.E.C.z.z.9.",
"  z.h.C.K.E.K.E./.K.E.E.E./.E.n. XQ.n.E.K./.E.K.(.E.K.v.h.z.v.9.",
"  h.C.E./.E././.E.E././.K.K.E.C.z.h.K.E.E./.E.E.K.v.h.z.v.v.z.9.",
"  C./.E.E.E.E.K.K./.C.C./.E./.E.K.K.K././.K.K.v.z.v.z.v.v.z.v.q.",
"  K.K.E./.K./.K.K.C.h.v.E.E.K.E.K.(.K.K.C.z.v.x.v.z.v.z.z.v.z.9.",
"  E.E.K.K./.E.E.E.C.h.C.E.E./.K.K.v.z.v.z.z.v.z.z.v.z.v.v.z.v.q.",
"  /.E./.E./.K./.E.K.C.E./.K.C.C.v.z.v.z.z.v.z.v.v.z.v.z.z.v.z.e.",
"  d.K./.E.K./.K.K.E././.K.C.h.h.z.v.z.v.v.z.v.z.z.v.z.v.z.v.z.w.",
"  4.K.E./.K.E.E./.K.E.E.x.x.C.v.v.z.v.z.z.v.z.v.v.z.v.z.v.z.K.*.",
"  @.K./.E.E.E.K.E./.C.z.v.z.v.z.z.v.z.v.z.v.z.v.z.v.z.v.h.v./.O.",
"  ' E./.v.C.E./.E.C.h.C.z.v.z.v.v.z.v.z.v.z.v.z.v.z.v.z.z.C./.` ",
"  o 6.v.h.z.C./.C.v.v.z.v.z.v.z.z.v.z.v.z.v.z.v.z.v.z.v.z.E.7.o ",
"    _ C.z.h.E.K.h.v.z.v.z.v.z.v.v.z.v.z.v.z.v.z.v.z.v.z.v./.`   ",
"       .C.K./.z.v.z.v.z.z.v.z.v.z.v.z.v.z.v.z.v.C.h.C.x.C. .    ",
"        ../.C.h.z.n.z.v.v.z.v.z.v.z.v.z.v.z.v.z.h.C.h.h.X..     ",
"          @ *.z.n.n.C.h.z.v.z.v.C.h.z.v.z.v.h.C.C.h.<.(         ",
"            X _ o.#.7.q.9.q.9.q.9.q.9.q.9.9.9.#.o._ o           "
};
