/* XPM */
static char *_640706085231[] = {
/* columns rows colors chars-per-pixel */
"32 32 159 2 ",
"   c #06053E",
".  c #30282E",
"X  c #36302F",
"o  c #27283F",
"O  c #2F2A3E",
"+  c #392830",
"@  c #2E3237",
"#  c #323234",
"$  c #3B3136",
"%  c #3F3738",
"&  c #3A393D",
"*  c #060543",
"=  c #0A0A46",
"-  c #07064B",
";  c #04034C",
":  c #05054F",
">  c #06054F",
",  c #0C0D4F",
"<  c #131447",
"1  c #11114E",
"2  c #14154C",
"3  c #19194A",
"4  c #000052",
"5  c #020252",
"6  c #040353",
"7  c #0B0B56",
"8  c #000058",
"9  c #030358",
"0  c #020259",
"q  c #00005B",
"w  c #03035A",
"e  c #04045A",
"r  c #01015C",
"t  c #00005D",
"y  c #02035D",
"u  c #171752",
"i  c #171756",
"p  c #2E2845",
"a  c #373743",
"s  c #39324D",
"d  c #202053",
"f  c #222259",
"g  c #343151",
"h  c #303159",
"j  c #000062",
"k  c #000064",
"l  c #000066",
"z  c #030366",
"x  c #040467",
"c  c #07076A",
"v  c #0B0B68",
"b  c #151467",
"n  c #1C1C63",
"m  c #1D1C6D",
"M  c #242561",
"N  c #21226A",
"B  c #2F306E",
"V  c #333367",
"C  c #393C60",
"Z  c #3E3B64",
"A  c #33326E",
"S  c #433A46",
"D  c #413C4B",
"F  c #4E4D47",
"G  c #414054",
"H  c #4B4D59",
"J  c #6F614B",
"K  c #786E5C",
"L  c #4F4A63",
"P  c #4E4D68",
"I  c #4E4E70",
"U  c #585875",
"Y  c #636764",
"T  c #6D6C6A",
"R  c #6E6D6D",
"E  c #76756F",
"W  c #797168",
"Q  c #6C6E75",
"!  c #7C757F",
"~  c #9F704D",
"^  c #81735B",
"/  c #AC774D",
"(  c #8D7469",
")  c #80786D",
"_  c #877F74",
"`  c #807D78",
"'  c #7F8078",
"]  c #878175",
"[  c #888077",
"{  c #878078",
"}  c #84807A",
"|  c #8A847A",
" . c #95897B",
".. c #A18479",
"X. c #525190",
"o. c #626386",
"O. c #838684",
"+. c #868785",
"@. c #888783",
"#. c #8A8782",
"$. c #8F8881",
"%. c #8C8C89",
"&. c #938D84",
"*. c #93938E",
"=. c #95938F",
"-. c #8D8E99",
";. c #999A96",
":. c #9E9A94",
">. c #929098",
",. c #9D9C99",
"<. c #9B9C9F",
"1. c #A69391",
"2. c #B09C93",
"3. c #A8A8A9",
"4. c #B0A6A5",
"5. c #ACB0AF",
"6. c #BAB2AD",
"7. c #B2B1B1",
"8. c #D0A29A",
"9. c #DABCA5",
"0. c #CFC3BA",
"q. c #C9C5BF",
"w. c #D3C7BD",
"e. c #F1C3B3",
"r. c #BBBEC2",
"t. c #C6C8C8",
"y. c #CBCBCD",
"u. c #D1C7C1",
"i. c #D3CBC6",
"p. c #D4CCC7",
"a. c #D4CECF",
"s. c #D7D7D7",
"d. c #DED6D6",
"f. c #DAD8D7",
"g. c #D8D9DB",
"h. c #D9DBDC",
"j. c #DEDEDF",
"k. c #E4CDC4",
"l. c #F2CCCB",
"z. c #F8CACC",
"x. c #ECDCD0",
"c. c #FCE9DF",
"v. c #E1E1E1",
"b. c #E2E1E2",
"n. c #E7E5E3",
"m. c #E1E2E4",
"M. c gray90",
"N. c #E9E5E4",
"B. c #E8E8E7",
"V. c #EEE9E5",
"C. c gray91",
"Z. c #ECECEC",
"A. c #EFF2EE",
"S. c #F5F2EE",
"D. c #F0F0F1",
"F. c #FDFAF5",
"G. c #FFFCF7",
"H. c #FFFEFA",
"J. c white",
/* pixels */
"l l l l l l l l l l l l l l l l l l l l l l l l l l l l l l l l ",
"l l l l l l l l l l l l l l l l l l l l l l l l l l l l l l l l ",
"l l l l l l l l l l l l l l l l l l l l l l l l l l l l l l l l ",
"l l l l l l l l l l l l l l l l l l l l l l l l l l l l l l l l ",
"l l l l l l l l l l l l l l l l l l l l l l l l l l l l l l l l ",
"l l l l l l l l l l l l l l l l l l l l l l l l l l l l l l l l ",
"l l l l l l l l l l l l l l l l l l l l l l l l l l l l l l l l ",
"l l l l l l l l l l l l l l l l l l l l l l l l l l l l l l l l ",
"l l l l l l l l l l l l l l l l l l l l l l l l l l l l l l l l ",
"l l l l l l l l l l l l l l l l l l l l l l l l l l l l l l l l ",
"l l l l l l l l l l l l l l l l l l l l l l l l l l l l l l l l ",
"l l l l l l l l l l l l l l l l l l l l l l l l l l l l l l l l ",
"l c A 9 l l l l l l l l x b n M d 3 u 7 7 9 l l l l l l l l l l ",
"l l Z p y l l l l l v N V g G H & # @ a P h = 4 l l l l l l l l ",
"l l l S ^ D 1 B o.Q O.+.%.T E @.#.T Y ,.3.t.r.' F o < e l l l l ",
"l l l x . J &.W [ ] =.| ) ] _ &.} ` :.<.;.*.5.( ~ / ..X + - r l ",
"l l X. .K % s L 4.d.a.i.u.w.0.p.N.S.G.F.H.J.J.x.8.e.k.2.9.$ * l ",
"l m O   r l l l j i I -.h.D.V.n.m.h.s.v.B.B.Z.A.l.z.c.6.2 l l l ",
"l l l l l l l l l l l l 9 f U >.7.y.j.v.M.f.u.1.! C ; l l l l l ",
"l l l l l l l l l l l l l l l l l 9 6 > > 4 8 j l l l l l l l l ",
"l l l l l l l l l l l l l l l l l l l l l l l l l l l l l l l l ",
"l l l l l l l l l l l l l l l l l l l l l l l l l l l l l l l l ",
"l l l l l l l l l l l l l l l l l l l l l l l l l l l l l l l l ",
"l l l l l l l l l l l l l l l l l l l l l l l l l l l l l l l l ",
"l l l l l l l l l l l l l l l l l l l l l l l l l l l l l l l l ",
"l l l l l l l l l l l l l l l l l l l l l l l l l l l l l l l l ",
"l l l l l l l l l l l l l l l l l l l l l l l l l l l l l l l l ",
"l l l l l l l l l l l l l l l l l l l l l l l l l l l l l l l l ",
"l l l l l l l l l l l l l l l l l l l l l l l l l l l l l l l l ",
"l l l l l l l l l l l l l l l l l l l l l l l l l l l l l l l l ",
"l l l l l l l l l l l l l l l l l l l l l l l l l l l l l l l l ",
"l l l l l l l l l l l l l l l l l l l l l l l l l l l l l l l l "
};
