/* XPM */
static char *_640706293527[] = {
/* columns rows colors chars-per-pixel */
"32 32 206 2 ",
"   c #1C391D",
".  c #11282E",
"X  c #173727",
"o  c #13293A",
"O  c #163F3D",
"+  c #123531",
"@  c #19461F",
"#  c #2E5019",
"$  c #234818",
"%  c #08422F",
"&  c #1E4826",
"*  c #1C532B",
"=  c #194836",
"-  c #224424",
";  c #254C2A",
":  c #205027",
">  c #24512D",
",  c #22582E",
"<  c #234D34",
"1  c #2E4D3C",
"2  c #2A5A34",
"3  c #2C5E3C",
"4  c #285638",
"5  c #32583B",
"6  c #16652A",
"7  c #346229",
"8  c #35702C",
"9  c #2C613A",
"0  c #2C6833",
"q  c #3C6C3E",
"w  c #326537",
"e  c #2B7137",
"r  c #3B753B",
"t  c #27662D",
"y  c #447E3F",
"u  c #447B38",
"i  c #447928",
"p  c #0B1D4C",
"a  c #061747",
"s  c #060D5F",
"d  c #010C57",
"f  c #0C1D51",
"g  c #07115C",
"h  c #0A135C",
"j  c #0D1B5C",
"k  c #091754",
"l  c #121D5C",
"z  c #0E2648",
"x  c #122C45",
"c  c #12264C",
"v  c #10284E",
"b  c #0F314C",
"n  c #143445",
"m  c #193C43",
"M  c #163A4A",
"N  c #0F265A",
"B  c #122553",
"V  c #142B52",
"C  c #13235C",
"Z  c #142B5A",
"A  c #1F2F5C",
"S  c #153255",
"D  c #1A3354",
"F  c #153259",
"G  c #1D3B5C",
"H  c #153A50",
"J  c #233946",
"K  c #213E56",
"L  c #263A58",
"P  c #313F59",
"I  c #000066",
"U  c #050B62",
"Y  c #0B0F65",
"T  c #040569",
"R  c #060A6B",
"E  c #0A0D6D",
"W  c #0D1562",
"Q  c #0E1961",
"!  c #0D116D",
"~  c #071061",
"^  c #111861",
"/  c #10146B",
"(  c #0E1370",
")  c #111471",
"_  c #151A75",
"`  c #181C76",
"'  c #182868",
"]  c #1E257C",
"[  c #1A2877",
"{  c #1E307A",
"}  c #17366D",
"|  c #282D6F",
" . c #263168",
".. c #34376E",
"X. c #202079",
"o. c #242B7E",
"O. c #2D3575",
"+. c #2E3D7C",
"@. c #1A434C",
"#. c #1C4145",
"$. c #1E504C",
"%. c #1D4550",
"&. c #174254",
"*. c #1A5051",
"=. c #27474A",
"-. c #295A41",
";. c #23544D",
":. c #2C5349",
">. c #255E4A",
",. c #2C5B4B",
"<. c #245845",
"1. c #32524A",
"2. c #224454",
"3. c #234955",
"4. c #2D4259",
"5. c #2C4B5A",
"6. c #2A4B52",
"7. c #3B5654",
"8. c #295958",
"9. c #296643",
"0. c #3C644C",
"q. c #32674B",
"w. c #377545",
"e. c #356353",
"r. c #386E53",
"t. c #364864",
"y. c #385766",
"u. c #23427A",
"i. c #33537E",
"p. c #3E6862",
"a. c #3D6D71",
"s. c #4A545D",
"d. c #4B7D41",
"f. c #436855",
"g. c #607F4B",
"h. c #407468",
"j. c #547F6B",
"k. c #446477",
"l. c #576B7F",
"z. c #3C8333",
"x. c #689A1A",
"c. c #5C8C2C",
"v. c #4A813B",
"b. c #468635",
"n. c #538738",
"m. c #589939",
"M. c #658A3B",
"N. c #6B9F3B",
"B. c #619032",
"V. c #759F34",
"C. c #6AA32D",
"Z. c #6AAC3E",
"A. c #69A23B",
"S. c #6DBF3B",
"D. c #3D8A61",
"F. c #3E8572",
"G. c #428644",
"H. c #4C8C44",
"J. c #408048",
"K. c #478E40",
"L. c #578742",
"P. c #4B9046",
"I. c #599748",
"U. c #4F8B50",
"Y. c #569A5A",
"T. c #688D4A",
"R. c #6B9548",
"E. c #739A43",
"W. c #678D5F",
"Q. c #639C5A",
"!. c #66A94B",
"~. c #75A042",
"^. c #6A8C63",
"/. c #69857B",
"(. c #8FAA3B",
"). c #A0B33F",
"_. c #A9C431",
"`. c #BBCA33",
"'. c #9DBF40",
"]. c #83AD50",
"[. c #A1B841",
"{. c #84AA7B",
"}. c #9ACE45",
"|. c #192B82",
" X c #103385",
".X c #272F81",
"XX c #2B3485",
"oX c #373D89",
"OX c #394B85",
"+X c #3D4492",
"@X c #286896",
"#X c #465D83",
"$X c #445198",
"%X c #5D5D9E",
"&X c #4B6F8F",
"*X c #586F9F",
"=X c #54679E",
"-X c #517793",
";X c #597A8A",
":X c #4473A9",
">X c #637DA5",
",X c #6666A3",
"<X c #599E81",
"1X c #769F83",
"2X c #6CA0AF",
"3X c #93C689",
/* pixels */
"I I I I I I I I I I I I T Y I  X-XI I E I I I I ) R I I I I I I ",
"I I I I I I I I I I I I I 4.Y R O.U I ` R I I I I I I I I I I I ",
"I I I I I I I I I I I I I K s.I I I I $X=XI I ` .XI I I I I I I ",
"I I I I I I I I I I I T I  .l I I U I ] XXE ( ! ] ! I ` R I I I ",
"I I I I I I I I I I I ~ l L A I ~ j I I |.oXXXI I I I .X( R I I ",
"I I I I I I I I I I I N Z 6.D I l U U ) T XXE I I I I I @X&X{ E ",
"I I I I I I I I I I I $.4.y.b I j I E *XE I I I I I R E +.k.-X| ",
"I I I I I I I I I I I 9.7.t.T.U I +X_ O.p I I I I E ` ) I I T T ",
"I I I I I I I I I I I ;.q.Z E.=.I Y P P ~ I I I I ) ! I I I I I ",
"I I I I I I I U U I I &.J.,.b.P I d u f.I I T ] I I I I I R E I ",
"I I I I I I I R C I I F G.G.N.7.I a 3Xl.I I T ) I I E I I I T I ",
"I I I I I I I R k.I R I H S.T.l I < F./.I I I I I .X.XI I I I I ",
"I I I I I I I I k.^ U h 2.m.3 I a d.' H.{.I I I ) $X` I I I I I ",
"I I I I I I I I C D I b Y.H.* I x 1. .b.z.g.I I R ( R T I I I I ",
"I I I I I I I I U K S >.I.y b.2.g =.6.!.6 n.l I I I E XXE I I I ",
"I I I I I I I I I 2.,.j r u N.E.s X c.A.e v.l I T E I ` E I I I ",
"I I I I I I I I I y.#XT 0 A.(.`.M.p.Q.C.e u Z { ( I E I I I I I ",
"I I I I I I I I I h.-X|.U.V.[.`._.{.t.i r x.' :X..I ! I I I I I ",
"I I I I I I I I U t 8.I t.M.).).(.V.1 2 w B.^ I I I I I I I I I ",
"I I I I I I I g W OXw./ e.:.R.R.E.I.2 7 y.].J d I I I I I I I I ",
"I I ! ! I I I l E R -.!.P.I 0.N.<XF.f.W.n.h g 6.Q I I I I I I I ",
"I I %X,XI I oX>X] I 0 <.w.R %.m.Q.D.q ^.L.I 1.}.0.I I I I I I I ",
"I I ( ( I I X.+.T W w.H q.C *.9 # 8 < w y L.Z.Z.D I I I I I I R ",
"I I I I I I I I I r.>.N <.%.9.V o 7 4 , 5 v.N.w.I I I I I I I R ",
"I I I I I I ` ! T 1X% g 5.e.r.i.M $ : * v.N.n.h I I I I I I I I ",
"I I I I I I T I B 9.$.+.;Xp.} 2X5 + 2 * ; 1 c I I I I I I I I I ",
"I I I I I I I I 2.@.%.OXa.;.S L X ,.1 ; X j I I I I I I I I I T ",
"I I I I I I I Q 2.F = M G m F f @ =.c - G.L I I I I I I I I I W ",
"I I I I I I I Q 2.V #.#.b m S j > 3 O - B I I I I I I I I I I R ",
"I I I I I I I I 2.V n m f x v N q.3 & o I I I I I I I I I I I I ",
"I I I I I I I I D <.x m s z x j <.X X s I I I I I I I I I I I I ",
"I I I I I I I I U &.z c I k p s c . a I I I I I I I I I I I I I "
};
