/* XPM */
static char *_640705338487[] = {
/* columns rows colors chars-per-pixel */
"64 64 223 2 ",
"   c #040106",
".  c #13162E",
"X  c #03045C",
"o  c #07095B",
"O  c #0E175C",
"+  c #15175B",
"@  c #19225B",
"#  c #000066",
"$  c #0A0D64",
"%  c #040568",
"&  c #070B68",
"*  c #0C1163",
"=  c #0D136C",
"-  c #0F196B",
";  c #131A64",
":  c #181E61",
">  c #11156A",
",  c #131A67",
"<  c #161F72",
"1  c #2A1860",
"2  c #1C236B",
"3  c #182467",
"4  c #1F316C",
"5  c #1E2D73",
"6  c #1E2A79",
"7  c #21246F",
"8  c #212B6C",
"9  c #252F64",
"0  c #25336C",
"q  c #2B347A",
"w  c #2C3B7A",
"e  c #253A78",
"r  c #313F78",
"t  c #222B75",
"y  c #37446E",
"u  c #34497B",
"i  c #4B587A",
"p  c #455071",
"a  c #A55968",
"s  c #1D3B81",
"d  c #293982",
"f  c #323F83",
"g  c #304581",
"h  c #3C4D8B",
"j  c #3F588C",
"k  c #3B538E",
"l  c #3B5D98",
"z  c #3D5595",
"x  c #284487",
"c  c #3E678E",
"v  c #3E689B",
"b  c #3E67A2",
"n  c #44558E",
"m  c #445B8E",
"M  c #465B87",
"N  c #455993",
"B  c #424984",
"V  c #4A658E",
"C  c #49648C",
"Z  c #4E6A95",
"A  c #496494",
"S  c #586D9B",
"D  c #4B749C",
"F  c #4D789F",
"G  c #53769A",
"H  c #55799D",
"J  c #5A7D9E",
"K  c #5A7599",
"L  c #586F8B",
"P  c #6D7F8B",
"I  c #666E92",
"U  c #5169A2",
"Y  c #576EA5",
"T  c #4C79A3",
"R  c #4C7BAB",
"E  c #4875A5",
"W  c #527CA4",
"Q  c #5A7DA3",
"!  c #5175AB",
"~  c #547AA4",
"^  c #5B7AB3",
"/  c #657BA8",
"(  c #757CAD",
")  c #9C6F8B",
"_  c #AE7B97",
"`  c #4E81AE",
"'  c #5D82A4",
"]  c #5481AC",
"[  c #5D84AA",
"{  c #5B82B2",
"}  c #5A8DBB",
"|  c #5F88B0",
" . c #6286AB",
".. c #648AAD",
"X. c #6284A6",
"o. c #7787AA",
"O. c #6F92AD",
"+. c #658CB2",
"@. c #6A8CB3",
"#. c #668AB9",
"$. c #6983BF",
"%. c #6691B6",
"&. c #6991B5",
"*. c #6491BB",
"=. c #6B94BB",
"-. c #6C98BF",
";. c #7895BA",
":. c #5F98C9",
">. c #6A96C1",
",. c #6E99C3",
"<. c #649BCD",
"1. c #6D9DCA",
"2. c #6295C2",
"3. c #719CC5",
"4. c #729DC9",
"5. c #7B9CC3",
"6. c #659DD1",
"7. c #75A2CD",
"8. c #79A4CE",
"9. c #75A8C8",
"0. c #7EA0C6",
"q. c #6CA2D4",
"w. c #68A4D9",
"e. c #75A6D4",
"r. c #79A7D3",
"t. c #77A8D6",
"y. c #7BAAD7",
"u. c #77AADB",
"i. c #7DACDA",
"p. c #7FB0DF",
"a. c #79AEE1",
"s. c #77ADE0",
"d. c #7EB3E3",
"f. c #74B2EA",
"g. c #7ED2FF",
"h. c #858789",
"j. c #8E8BAB",
"k. c #998AA3",
"l. c #8796B7",
"z. c #9A97BE",
"x. c #83A5BA",
"c. c #D7D0BC",
"v. c #9C9AC7",
"b. c #809AC5",
"n. c #82A3CC",
"m. c #85A9CA",
"M. c #98ABC7",
"N. c #8FB0CD",
"B. c #95B2CE",
"V. c #84AED4",
"C. c #88AFD5",
"Z. c #81AED9",
"A. c #84B1DB",
"S. c #8BB4DC",
"D. c #8CB2D7",
"F. c #91B7DC",
"G. c #94BADE",
"H. c #99BDDF",
"J. c #97B6D2",
"K. c #ADBCC2",
"L. c #A0AAD4",
"P. c #A4BBDA",
"I. c #B4BACD",
"U. c #82B3E2",
"Y. c #8DBBE4",
"T. c #8BBDEC",
"R. c #88B7E4",
"E. c #94BDE3",
"W. c #9ABEE1",
"Q. c #92BFE9",
"!. c #8ABEF0",
"~. c #B1C0CE",
"^. c #B9C7D9",
"/. c #A7C3DD",
"(. c #8AC3EC",
"). c #9DC1E2",
"_. c #96C2EB",
"`. c #9EC4EB",
"'. c #91C1E6",
"]. c #8BC1F3",
"[. c #89C9FD",
"{. c #96C9F6",
"}. c #9DCBF4",
"|. c #99C9F5",
" X c #9FD0F6",
".X c #A3C4E3",
"XX c #A9C7E5",
"oX c #ABC9E6",
"OX c #A3C7E9",
"+X c #A5C9EA",
"@X c #ADCDEB",
"#X c #B2CFE9",
"$X c #B2CCE6",
"%X c #B3D2ED",
"&X c #BBD3EA",
"*X c #B6D9EF",
"=X c #A5CCF3",
"-X c #ABD2F3",
";X c #A6D4FD",
":X c #ADD7FD",
">X c #BBD7F2",
",X c #BBDBF5",
"<X c #B5DCFD",
"1X c #B5D8F8",
"2X c #ACE2FF",
"3X c #BCE3FE",
"4X c #B4E1FF",
"5X c #CCD9DD",
"6X c #C7D9EC",
"7X c #D0DDE1",
"8X c #C5DEF3",
"9X c #C5DEF5",
"0X c #C4E0F5",
"qX c #CCE0F5",
"wX c #C6E3FB",
"eX c #C4E9FE",
"rX c #CEEBFF",
"tX c #C8E6FF",
"yX c #D4EAFC",
"uX c #C8F2FF",
"iX c #D2F3FF",
"pX c #E3F7FF",
"aX c #F2F8FF",
/* pixels */
"# # # # # # # # # # # # # # # # # # # # # # # # # # # # # # # # # # # # # # # # # # # # # # # # # # # # # # # # # # # # # # # # ",
"# # # # # # # # # # # # # # # # # # # # # # # # # # # # # # # # # # # # # # # # # # # # # # # # # # # # # # # # # # # # # # # # ",
"# # # # # # # # # # # # # # # # # # # # # # # # # # # # # # # = d h y M ;.S.5.K n 6 & # # # # # # # # # # # # # # # # # # # # # ",
"# # # # # # # # # # # # # # # # # # # # # # # # # # # # : m 5..X9XwX^.I.6XqXqXrXtX>XH.S = # # # # # # # # # # # # # # # # # # # ",
"# # # # # # # # # # # # # # # # # # # # # # # # # % g 5.=X<X9X8X6XqXyX9X#XoXXXXXXXoX%XwX-Xn # # # # # # # # # # # # # # # # # # ",
"# # # # # # # # # # # # # # # # # # # # # # # $ m S.-X1X#X&X6X&X#XXX.X.X.X.X.XW.W.G.E.H.+X3Xx.= # # # # # # # # # # # # # # # # ",
"# # # # # # # # # # # # % % # # # % % % # # m Q.;XOX.X&X&X#X.X.X.X.XXXoXXXXX.X.X.XW.W.W.G.S.:X`.o # # # # # # # # # # # # # # # ",
"# # # # # # # # # # # # % t M l.I.^.7X7Xl.3. XE.H.oX%XXXW.W..X.XXXoXoXoXoXXX.X.X.X).W.W.G.G.S.=X'.X # # # # # # # # # # # # # # ",
"# # # # # # # # # # 2 o.6XiXaXiXwX,X@X).Y.(.S.H.oX.XW.G.H..X.XXXoXoX$X$XoXXXXX.X.X).H.H.W.F.F.S.:X! # # # # # # # # # # # # # # ",
"# # # # # # # # w ).4X}.u.<.<.q.w.<.1.t.A.S.)..XW.G.H.W.)..X.XXXXXoX$XoX@XXXXX.X.X).).).).E.G.S.Y.{.2 # # # # # # # # # # # # # ",
"# # # # # # $ l.E.2.E E T R R R ` 1.A.A.Z.H.).G.G.G.H.).P.)..X.XXXXXoXoXXXXX.X.X.XW..XW.D.D.E.F.S.{.S # # # # # # # # # # # # # ",
"# # # # % y Y.6.E T T W T W D D ,.A.i.Z.F.G.S.F.E.G.E.W.)..X.X.X.XXXXXXXXX.X.X.X).1XC.c y.-XF.S.S.S.3.% # # # # # # # # # # # # ",
"# # # # 7 D l E } 2.} R ] F F 9.S.i.i.S.S.S.S.F.G.G.G.W.)..X)..X.X.XXX.XXX.X.X).+X0.' h.. P _.F.S.R.^ # # # # # # # # # # # # # ",
"# # # # # # # # $ 8 D } T F 7.U.i.p.A.S.A.S.S.F.F.G.G.H.W.W.W..X.X.X.X.X.X.X.X.X).p k.c.  . Y.Q.Z._.b.$ # % # # # # # # # # # # ",
"# # # # # # # # # # # e T 3.U.y.Z.C.S.C.A.S.S.S.F.G.G.W.W.W.)..X.X.XXX.X.X.X.X.XV.K.v.  . v.oXi.F.).%X%XS , % # # # # # # # # # ",
"# # # # # # # # # # # # C ].y.i.Z.A.p.i.p.S.S.S.F.F.G.W.W.W.H.G.E.S.S.Z.Z.Z.Z.Z.m.J.#X#.M.aXS.i.G.G.G.`.3X*XJ.P.M.B # # # # # # ",
"# # # # # # # # # # # O R.p.y.Z.A.S.i.Z.Z.S.S.D.F.G.G.S.S.Z.y.e.e.e.e.e.r.e.e.y.S.)..XtX0XN.u.A.S.S.S.G.G.).OX=X8X( # # # # # # ",
"# # # # # # # # # # X r.T.r.y.Z.A.Z.Z.Z.Z.A.A.S.S.A.Z.y.e.e.y.i.y.y.y.i.y.y.y.i.A.S.G.H.).E.7.y.Z.Z.A.S.S.Y.G.2X@.* # # # # # # ",
"# # # # # # # # # # M [.y.y.i.A.S.Z.Z.Z.Z.C.A.A.y.y.y.i.y.y.y.y.i.y.y.y.y.i.y.i.y.i.Z.Z.A.U...+.8.Z.d.d.R.(.[.P.1 # # # # # # # ",
"# # # # # # # # # : U.d.y.y.i.S.Z.i.Z.Z.A.Z.i.r.y.y.y.y.y.i.y.y.y.y.y.y.y.y.y.y.y.y.y.y.y.U.7.+.7.;.;.l.l.j._ a o # # # # # # # ",
"# # # # # # # # # H U.i.y.y.A.A.Z.Z.Z.Z.i.y.t.y.i.y.y.y.i.y.y.y.y.y.y.y.y.y.y.y.y.y.y.i.U.i.>.+.9.9.n.z.k._ ) + # # # # # # # # ",
"# # # # # # # # : e.i.y.y.i.A.A.Z.Z.Z.i.y.y.p.i.7.i.y.y.y.y.y.y.y.i.i.y.y.y.y.y.y.i.d.i.7...Z m U ^ ! v l s & # # # # # # # # # ",
"# # # # # # # # C 8.p.y.y.Z.D.Z.Z.Z.i.y.y.A.r...4.i.y.y.y.y.y.y.y.Z.7.r.y.i.i.A.p.r.3...[ @ # # # # # # # # # # # # # # # # # # ",
"# # # # # # # * %.8.p.y.y.C.A.i.Z.i.y.i.d.3.J ..Y.Z.y.y.y.y.y.i.R.3.=.R.d.i.y.4.=. .G H } R # # # # # # # # # # # # # # # # # # ",
"# # # # # # # w =.8.i.y.y.C.A.Z.Z.y.Z.i.=.' H m._.F.S.A.Z.Z.i.U.Z.X.7.y.8.=...J H G ] w.f.[.b # # # # # # # # # # # # # # # # # ",
"# # # # # # # V =.r.i.y.i.A.p.Z.y.i.A.&.' ' ..E.).W.G.S.A.y.T.).O.&.1.' V H [ ] E ] *.2.R d > # # # # # # # # # # # # # # # # # ",
"# # # # # # $ ' +.y.i.y.i.C.Z.Z.y.d.=.Q ..H ;.@X.X.X).F.U.;XP.L j w 2 $ # & 3 5 x 5 < & # # # # # # # # # # # # # # # # # # # # ",
"# # # # # # - ..+.y.i.y.i.C.Z.y.i.3.'  .....F.@XoXXX=X4X,Xi X # # # # # # # # # # # # # # # # # # # # # # # # # # # # # # # # # ",
"# # # # # # 6 ....r.i.y.i.A.i.i.i...' ..=.C M.uXiXrX$XI o % # # # # # # # # # # # # # # # # # # # # # # # # # # # # # # # # # # ",
"# # # # # # q #. .r.i.t.Z.A.i.U.,.Q ..,.k # y o.p + # # # # # # # # # # # # # # # # # # # # # # # # # # # # # # # # # # # # # # ",
"# # # # # # 0 >.[ 7.p.y.Z.Z.i.i.+.' 7.9 # # # # # # # # # # # # # # # # # # # # # # # # # # # # # # # # # # # # # # # # # # # # ",
"# # # # # # d ..' 3.A.t.i.Z.Z.8.X.,.C # # # # # # # # # # # # # # # # # # # # # # # # # # # # # # # # # # # # # # # # # # # # # ",
"# # # # # # 2 ..' =.a.y.i.i.A.3. .&.% # # # # # # # # # # # # # # # # # # # # # # # # # # # # # # # # # # # # # # # # # # # # # ",
"# # # # # # & @. .+.i.i.y.i.U.3.=.u # # # # # # # # # # # # # # # # # # # # # # # # # # # # # # # # # # # # # # # # # # # # # # ",
"# # # # # # % ~ +.X.7.Z.y.y.U.1...3 # # # # # # # # # # # # # # # # # # # # # # # # # # # # # # # # # # # # # # # # # # # # # # ",
"# # # # # # # u ,.' -.A.y.i.S.7.' > # # # # # # # # # # # # # # # # # # # # # # # # # # # # # # # # # # # # # # # # # # # # # # ",
"# # # # # # # : >.X...y.i.i.R.y.J % # # # # # # # # # # # # # # # # # # # # # # # # # # # # # # # # # # # # # # # # # # # # # # ",
"# # # # # # # # Q #.' 3.d.y.S.A.G # # # # # # # # # # # # # # # # # # # # # # # # # # # # # # # # # # # # # # # # # # # # # # # ",
"# # # # # # # # 8 7.' %.i.y.S.'.Q % # # # # # # # # # # # # # # # # # # # # # # # # # # # # # # # # # # # # # # # # # # # # # # ",
"# # # # # # # # X ..=.' 7.i.Z._.1.$ # # # # # # # # # # # # # # # # # # # # # # # # # # # # # # # # # # # # # # # # # # # # # # ",
"# # # # # # # # # 3 8.' &.i.t.E.E.- # # # # # # # # # # # # - q h A / Y N A f # # # # # # # # # # # # # # # # # # # # # # # # # ",
"# # # # # # # # # # j 7.' r.u.S.;Xg # # # # # # # # # - n 5.).-X,XtX1XwXeXG.r # # # # # # # # # # # # # # # # # # # # # # # # # ",
"# # # # # # # # # # X Q =.%.p.t.OXY.X # # # # # % 7 #.Y.=X`.).)..X@XeX.Xf # # # # # # # # # # # # # # # # # # # # # # # # # # # ",
"# # # # # # # # # # # o =.#.7.i.i.<XZ # # # # >  .[.T.Z.A.E.E.H.-XwX/ % # # # # # # # # # # # # # # # # # # # # # # # # # # # # ",
"# # # # # # # # # # # # > ' -.y.u.F.wX! % # u !.!.i.r.t.i.F.E.-X+Xq # # # # # # # # # # # # # # # # # # # # # # # # # # # # # # ",
"# # # # # # # # # # # # # % V ,.d.a.).<X1.] T.U.y.y.i.r.r.Z.|.n.$ # # # # # # # # # # # # # # # # # # # # # # # # # # # # # # # ",
"# # # # # # # # # # # # # # # 3 V 7.a.OX>XT.q.r.y.y.i.i.r.]. .% # # # # # # # # # # # # # # # # # # # # # # # # # # # # # # # # ",
"# # # # # # # # # # # # # # # # # ; [ a..X&XE.t.q.e.y.r.!.#.# # # # # # # # # # # # # # # # # # # # # # # # # # # # # # # # # # ",
"# # # # # # # # # # # # # # # # # # X H a.E.&XoXE.F.r.u.U.X # # # # # # # # # # # # # # # # # # # # # # # # # # # # # # # # # # ",
"# # # # # # # # # # # # # # # # # # # X &.d.r.N./.yX>X|.w # # # # # # # # # # # # # # # # # # # # # # # # # # # # # # # # # # # ",
"# # # # # # # # # # # # # # # # # # # # 0 R.i.1.%.;.B.1X5 # # # # # # # # # # # # # # # # # # # # # # # # # # # # # # # # # # # ",
"# # # # # # # # # # # # # # # # # # # # O 8.d.a.y.>.+.>.2 # # # # # # # # # # # # # # # # # # # # # # # # # # # # # # # # # # # ",
"# # # # # # # # # # # # # # # # # # # # o ,.d.y.i.p.d.,.= # # # # # # # # # # # # # # # # # # # # # # # # # # # # # # # # # # # ",
"# # # # # # # # # # # # # # # # # # # # & ..p.i.y.y.A.i.= # # # # # # # # # # # # # # # # # # # # # # # # # # # # # # # # # # # ",
"# # # # # # # # # # # # # # # # # # # # # C p.A.y.y.U.#.# # # # # # # # # # # # # # # # # # # # # # # # # # # # # # # # # # # # ",
"# # # # # # # # # # # # # # # # # # # # # 0 r.p.y.i.U.{ # # # # # # # # # # # # # # # # # # # # # # # # # # # # # # # # # # # # ",
"# # # # # # # # # # # # # # # # # # # # # * ;.y.i.y.U.! # # # # # # # # # # # # # # # # # # # # # # # # # # # # # # # # # # # # ",
"# # # # # # # # # # # # # # # # # # # # # # u y.U.i.(.z # # # # # # # # # # # # # # # # # # # # # # # # # # # # # # # # # # # # ",
"# # # # # # # # # # # # # # # # # # # # # # X ..r.U.R.m # # # # # # # # # # # # # # # # # # # # # # # # # # # # # # # # # # # # ",
"# # # # # # # # # # # # # # # # # # # # # # # O ,.r.d.V # # # # # # # # # # # # # # # # # # # # # # # # # # # # # # # # # # # # ",
"# # # # # # # # # # # # # # # # # # # # # # # # , Q 8...o # # # # # # # # # # # # # # # # # # # # # # # # # # # # # # # # # # # ",
"# # # # # # # # # # # # # # # # # # # # # # # # # # u -.4 # # # # # # # # # # # # # # # # # # # # # # # # # # # # # # # # # # # ",
"# # # # # # # # # # # # # # # # # # # # # # # # # # % q 6 # # # # # # # # # # # # # # # # # # # # # # # # # # # # # # # # # # # ",
"# # # # # # # # # # # # # # # # # # # # # # # # # # # # # # # # # # # # # # # # # # # # # # # # # # # # # # # # # # # # # # # # "
};
