/* XPM */
static char *_640705846490[] = {
/* columns rows colors chars-per-pixel */
"64 64 89 1 ",
"  c #000066",
". c #030367",
"X c #060568",
"o c #070668",
"O c #F08F00",
"+ c #F19000",
"@ c #F29000",
"# c #F39100",
"$ c #F49200",
"% c #F59200",
"& c #F69300",
"* c #F79400",
"= c #F89400",
"- c #F99500",
"; c #FA9500",
": c #FB9600",
"> c #FC9700",
", c #FD9700",
"< c #FE9800",
"1 c #FF9900",
"2 c #FD9D0B",
"3 c #FCA116",
"4 c #FCA216",
"5 c #FAA621",
"6 c #FBA722",
"7 c #F9AA2C",
"8 c #FAAB2D",
"9 c #F9B039",
"0 c #F6B343",
"q c #F8B444",
"w c #F8B544",
"e c #F5B74E",
"r c #F7B950",
"t c #F4BC59",
"y c #F6BE5B",
"u c #F2C064",
"i c #F5C366",
"p c #F1C46F",
"a c #F4C772",
"s c #F3CC7D",
"d c #4C4880",
"f c #4D4980",
"g c #4D4A80",
"h c #4E4B81",
"j c #4F4C81",
"k c #504D81",
"l c #555183",
"z c #565283",
"x c #807A92",
"c c #817B92",
"v c #898395",
"b c #8A8495",
"n c #9B949B",
"m c #A0999C",
"M c #A19A9D",
"N c #EECD86",
"B c #F2D189",
"V c #EDD191",
"C c #EBD69C",
"Z c #ECD69C",
"A c #EED89E",
"S c #F0D594",
"D c #F1D594",
"F c #C9C0AA",
"G c #CBC2AB",
"H c #CCC3A9",
"J c #CEC6AB",
"K c #CCC4AC",
"L c #D0C7AD",
"P c #D1C8AD",
"I c #D4CBAE",
"U c #D5CCAE",
"Y c #DFD5B0",
"T c #EADAA7",
"R c #EFDFAB",
"E c #E2D8B3",
"W c #E4DAB1",
"Q c #E4DBB1",
"! c #E7DEB5",
"~ c #E9DFB3",
"^ c #E8DFB4",
"/ c #E8DFB5",
"( c #EAE0B4",
") c #EBE1B4",
"_ c #EBE1B5",
"` c #ECE2B5",
"' c #ECE2B6",
"] c #EDE3B6",
"[ c #EEE4B7",
/* pixels */
"                                                                ",
"      XknJW~~~~~~~~~~~~~~~~~~~~~~~~~~~~~~~~~~~~~~~~~~YFnho      ",
"     hK[[(~~~~~~~~~~~~~~~~~~~~~~~~~~~~~~~~~~~~~~~~~~~][[[Kh     ",
"    x[[[]~~~~~~~~~~~~~~~~~~~~~~~~~~~~~~~~~~~~~~~~~~~_[[[[[]x    ",
"   x[[[[]~~~~~~~~~~~~~~~~~~~~~~~~~~~~~~~~~~~~~~~~~~~]][[[[[[c   ",
"  h[[[[[~~~~~~~~~~~~~~~~~~~~~~~~~~~~~~~~~~~~~~~~~~~][[[[[[[[[j  ",
" oU[[[[]~~~~~~~~~~~~~~~~~~~~~~~~~~~~~~~~~~~~~~~~~~([[[[[[[[[[Uo ",
" z[[[[[_~~~~~~~~~~~~~~~~~~~~~~~~~~~C515V~~~~~~~~~~][[[[[[[[[[[z ",
" m[[[[[~~~~~~~~~~~~~~~~~~~~~~~~~~~~0111e(~~~~~~~~][[[[[[[[[[[[M ",
" P[[[[]~~~~~~~~~~~~~~~~~~~~~~~~~~~~1,*-2T(~~~~~~_[[[[[[[[[[[[[P ",
" ^[[[[((~~~~~~~~~~~~~~~~~~~~~~~~~~N1%@%1p~~~~~__[[[[[[[[[[[[[[~ ",
" ][[[[~~~~~~~~~~~~~~~~~~~~~~~~~~~~N1-@-13~~~~~([[[[[[[[[[[[[[[[ ",
" [[[[[~~~~~~~~~~~~~~~~~~~~~~~~~~~~y11,-11N~~~~VBS[[[[[[[[[[[[[[ ",
" [[[[(~~~~~~~~~~~~~~~~~~~~~~~~~~~~e1-O@-15y072111B[[[[]][[[[[[[ ",
" [[[]~~~~~~~~~~~~~~~~~~~~~~~~~~CNN51-@O%111111%O-2R[[]~~[[[[[[[ ",
" [[[_~~~~~~~~~~~~~~~~~~~~~~u51111111,%%1111@@-@O-2[[]~~~~_[[[[[ ",
" [[[~~~~~~~~~~~~~~~~~~~~~~N1-*,1-111111111>O@@1-,y[]~~~~~~][[[[ ",
" []]~~~~~~~~~~~~~~~~~~~~~~u1OO-%OO111111111@O*11i[[]~~~~~~_[[[[ ",
" [[~~~~~~~~~~~~~~~~~~~~~~~C1-*,@OO1111111111112B[[[[~~~~~~[[[[[ ",
" [_~~~~~~~~~~~~~~~~~~~~~~~~N711,*-111111111115R[[[[[[~~~~[[[[[[ ",
" ]~~~~~~~~~~~~~~~~~~~~~~~~~~~N011111111111112[[[[[[[[[]~][[[[[[ ",
" (~~~~~~~~~~~~~~~~~~~~~~~~~~~~~Cw111111111111a[[[[[[[[[[[[[[[[[ ",
" ~~~~~~~~~~~~~~~~~~~~~~~~~~~~~]]S11111111-@*14[[[[[[[[[[[[[[[[[ ",
" ~~~~~~~~~~~~~~~~~~~~~~~~~~~]][[i1-@O>111OOO>1y[[[[[[[[[[[[[[[[ ",
" ~~~~~~~~~~~~~~~~~~~~~~~(]][[[[[91-OO*111*@@>>2R[[[[[[[[[[[[[[] ",
" ~~~~~~~~~~~~~~~~~~~~_]][[[[[[[[111@@>1r2111OO>r[[[[[[[[[[[[[[_ ",
" ~~~~~~~~~~~~~~~~~(][[[[[[[[[[[B1*@111a[R911@O17[[[[[[[[[[[[]_~ ",
" ~~~~~~~~~~~~~~~_][[[[[[[[[[[[[y1@@*1y[[[[B3111r[[[[[[[[[[[[_~~ ",
" ~~~~~~~~~~~~~_[[[[[[[[[[[[[[[[s1-11w[[[[[[Ri8e[[[[[[[[[[[[(~~~ ",
" ~~~~~~~~~~~_][[[[[[[[[[[[[[[[[[811w[[[[[[[[[[[[[[[[[[[[[](~~~~ ",
" ~~~~~~~~(~][[[[[[[[[[[[[[[[[[[]_AV[[[[[[[[[[[[[[[[[[[[[]~~~~~~ ",
" ~~~~~~~~([[[[[[[[[[[[[[[[[[[[[]~_!_[[[[[[[[[[[[[[[[[[[_~~~~~~~ ",
" ~~~~~~~][[[[[[[[[[[[[[[[[[[[[[(~~~~~][[[[[[[[[[[[[[[[(~~~~~~~~ ",
" ~~~~~~][[[[[[[[[[[[[[[[[[[[[[]~~~~~~[[[[[[[[[[[[[[[(~((~~~~~~~ ",
" ~~~~~][[[[[[[[[[[[[[[[[[[[[[[((~~~~_[[[[[[[[[[[[[[(~~~~~~~~~~~ ",
" ~~~~[[[[[[[[[[[[[[[[[[[[[[[[[]~~~~~][[[[[[[[[[[](~~~~~~~~~~~~~ ",
" ~~(][[[[[[[[[[[[[[[[]][[[[[[[[[](~~[[[[[[[[[[](~~~~~~~~~~~~~~~ ",
" ~~][[[[[[[[[[[[[[[](~~[[[[[[[[[[[]][[[[[[[[_(~~~~~~~~~~~~~~~~~ ",
" ~][[[[[[[[[[[[[[[(~~~~[[[[[[[[[[[[[[[[[[((~(~~~~~~~~~~~~~~~~~~ ",
" ][[[[[[[[[[[[[[[[(~~~~)[[[[[[[[[[[[[]_(~~~~~~~~~~~~~~~~~~~~~~~ ",
" [[[[[[[[[[[[[[[[[)(~~~([[[[[[[[[[]_~~~~~~~~~~~~~~~~~~~~~~~~~~~ ",
" [[[[[[[[[[[[[[[[[[(~~(([[[[[[[[_(~~~~~~~~~~~~~~~~~~~~~~~~~~~~~ ",
" [[[[[[[[[[[[[[[[[[((][[[[[[[]_~~~~~~~~~~~~~~~~~~~~~~~~~~~~~!R~ ",
" [[[[[[[[[[[[[[[[[[[[[[[[[[]_~~~~~~~~~~~~~~~~~~~~~~~~~~~~~~~((( ",
" [[[[[[[[[[[[[[[[[[[[[[[[[]~~~~~~~~~~~~~~~~~~~~~~~~~~~~~~~~~^([ ",
" [[[[[[[[[[[[[[[[[[[[[[[](~~~~~~~~~~~~~~~~~~~~~~~~~~~~~~~~~~^([ ",
" [[[[[[[[[[[[[[[[[[[[[[[~~~~~~~~~~~~~~~~~~~~~~~~~~~~~~~~~~~~~[[ ",
" [[[[[[[[[[[[[[[[[[[[[)~~~~~~~~~~~~~~~~~~~~~~~~~~~~~~~~~~~~()[[ ",
" [[[[[[[[[[[[[[[[[[[[(~~~~~~~~~~~~~~~~~~~~~~~~~~~~~~~~~~~~(~[[[ ",
" [[[[[[[[[[[[[[[[[[[((~~~~~~~~~~~~~~~~~~~~~~~~~~~~~~~~~~~~()[[[ ",
" [[[[[[[(()[[[[[[[[(~~~~~~~~~~~~~~~~~~~~~~~~~~~~~~~~~~~~~~~[[[[ ",
" [[[[[[[(~()[[[[[[(~~~~~~~~~~~~~~~~~~~~~~~~~~~~~~~~~~~~~~~([[[[ ",
" [[[[[)(~~~~)][[](~~~~~~~~~~~~~~~~~~~~~~~~~~~~~~~~~~~~~~~~[[[[[ ",
" E[[[[((~~~~(][[]~~~~~~~~~~~~~~~~~~~~~~~~~~~~~~~~~~~~~~~~~[[[[~ ",
" F[[[[((~~~~([[]~~~~~~~~~~~~~~~~~~~~~~~~~~~~~~~~~~~~~~~~~([[[[P ",
" m[[[[)(~~~([[]~~~~~~~~~~~~~~~~~~~~~~~~~~~~~~~~~~~~~~~~~~[[[[[m ",
" z[[[[[[)(~]]](~~~~~~~~~~~~~~~~~~~~~~~~~~~~~~~~~~~~~~~~~([[[[[z ",
" oI[[[[[[]][[]~~~~~~~~~~~~~~~~~~~~~~~~~~~~~~~~~~~~~~~~~~([[[[UX ",
"  k[[[[[[[[[]~~~~~~~~~~~~~~~~~~~~~~~~~~~~~~~~~~~~~~~~~~~[[[[[k  ",
"   x[[[[[[[[_~~~~~~~~~~~~~~~~~~~~~~~~~~~~~~~~~~~~~~~~~~([[[[x   ",
"    v[[][[[]~~~~~~~~~~~~~~~~~~~~~~~~~~~~~~~~~~~~~~~~~~~([[[b.   ",
"     hJ][[[_~~~~~~~~~~~~~~~~~~~~~~~~~~~~~~~~~~~~~~~~~(~_[Hk     ",
"      ozMK~~~~~~~~~~~~~~~~~~~~~~~~~~~~~~~~~~~~~~~~~~~WHMzX      ",
"                                                                "
};
