/* XPM */
static char *_640705867533[] = {
/* columns rows colors chars-per-pixel */
"64 64 205 2 ",
"   c #1F180C",
".  c #141113",
"X  c #2F291F",
"o  c #060537",
"O  c #100F3E",
"+  c #1E1E34",
"@  c #13133C",
"#  c #191738",
"$  c #181428",
"%  c #21202E",
"&  c #34332D",
"*  c #2A2936",
"=  c #3F3937",
"-  c #531F10",
";  c #4F2B1E",
":  c #4E3E1F",
">  c #56321E",
",  c #433E32",
"<  c #623D31",
"1  c #344037",
"2  c #45423A",
"3  c #564A3B",
"4  c #554227",
"5  c #694432",
"6  c #755039",
"7  c #010144",
"8  c #03034C",
"9  c #0A0A47",
"0  c #13124B",
"q  c #1C1B49",
"w  c #151545",
"e  c #010154",
"r  c #0A0A55",
"t  c #02025B",
"y  c #0B0A5B",
"u  c #100F52",
"i  c #13125B",
"p  c #1A1A56",
"a  c #292644",
"s  c #272840",
"d  c #3E3B43",
"f  c #31324E",
"g  c #3E394F",
"h  c #2B2B5B",
"j  c #222259",
"k  c #302B53",
"l  c #2F3157",
"z  c #32315B",
"x  c #3C3C58",
"c  c #000066",
"v  c #0C0C6A",
"b  c #0A0A67",
"n  c #181869",
"m  c #201F67",
"M  c #212167",
"N  c #393868",
"B  c #272679",
"V  c #423A49",
"C  c #464744",
"Z  c #484C45",
"A  c #4A434A",
"S  c #5A4F46",
"D  c #5D5B4C",
"F  c #58554A",
"G  c #474854",
"H  c #4D5451",
"J  c #585856",
"K  c #635B4C",
"L  c #6B5844",
"P  c #645D5A",
"I  c #665B51",
"U  c #6D6046",
"Y  c #63645A",
"T  c #68645C",
"R  c #686051",
"E  c #776859",
"W  c #7A684A",
"Q  c #464662",
"!  c #4F5374",
"~  c #56536C",
"^  c #6B5E65",
"/  c #5D6168",
"(  c #6B676E",
")  c #676862",
"_  c #756E65",
"`  c #7A7163",
"'  c #757369",
"]  c #7D796E",
"[  c #777167",
"{  c #6D6A7B",
"}  c #736F78",
"|  c #6F7175",
" . c #747473",
".. c #787774",
"X. c #75777A",
"o. c #76797B",
"O. c #7D7D7C",
"+. c #7C7A75",
"@. c #95583C",
"#. c #BD772C",
"$. c #846F5C",
"%. c #936E53",
"&. c #827A6A",
"*. c #857865",
"=. c #9E7568",
"-. c #847E73",
";. c #817F7C",
":. c #A18057",
">. c #84827C",
",. c #8C857D",
"<. c #8D897D",
"1. c #8C8377",
"2. c #9D8473",
"3. c #9D9177",
"4. c #B0947D",
"5. c #504F8C",
"6. c #7C7C85",
"7. c #CB7B87",
"8. c #7F8185",
"9. c #7E838B",
"0. c #8B8782",
"q. c #8B8A85",
"w. c #8C8C8B",
"e. c #85858A",
"r. c #918B82",
"t. c #938E8E",
"y. c #958988",
"u. c #9A938B",
"i. c #969186",
"p. c #8E9094",
"a. c #9B9A96",
"s. c #959597",
"d. c #AB9986",
"f. c #A79B9A",
"g. c #B89685",
"h. c #A6A39D",
"j. c #AEA59F",
"k. c #BDA391",
"l. c #ACAAA6",
"z. c #A7A7A8",
"x. c #B7ACAB",
"c. c #B5B0AA",
"v. c #BDB0A8",
"b. c #AEAFB3",
"n. c #B5B4B5",
"m. c #BAB5B5",
"M. c #BAB8B7",
"N. c #C79593",
"B. c #CDAF8E",
"V. c #CAA09D",
"C. c #D1A29D",
"Z. c #D297A3",
"A. c #C7A6A3",
"S. c #C1B4AC",
"D. c #CFB4A6",
"F. c #D6B4AF",
"G. c #C4BEB9",
"H. c #C8BCB6",
"J. c #D5BAB2",
"K. c #E5BFBA",
"L. c #FFCC9B",
"P. c #CAC1BA",
"I. c #D9C3BB",
"U. c #F2C1AE",
"Y. c #E5C7BA",
"T. c #C2C1C3",
"R. c #CBC5C0",
"E. c #CCCAC6",
"W. c #CCCBCC",
"Q. c #D3CCC6",
"!. c #D3CDC9",
"~. c #D1C7C1",
"^. c #D4D0CD",
"/. c #D9D2CC",
"(. c #CDCDD2",
"). c #D3D3D4",
"_. c #DAD5D3",
"`. c #DDDBD5",
"'. c #DCDBDB",
"]. c #D3D6DB",
"[. c #E9CCC5",
"{. c #E8D5CB",
"}. c #F2DCC7",
"|. c #E1DFDE",
" X c #F5DBD3",
".X c #E5E1DD",
"XX c #F9E7DA",
"oX c #DDDEE2",
"OX c #DFE3E9",
"+X c #E4E3E3",
"@X c #E9E6E4",
"#X c #EDEBE7",
"$X c #E6E7E9",
"%X c #ECEBEA",
"&X c #E5E8E5",
"*X c #F3EDE7",
"=X c #F0EEEA",
"-X c #F4F1EE",
";X c #FCF5EB",
":X c #FFF2E5",
">X c #EFF1F2",
",X c #F6F5F3",
"<X c #F9F6F2",
"1X c #FCF9F3",
"2X c #FFFFFD",
/* pixels */
"c c c c c c c c c c c c c c c c c c c c c c c c c c c c c c c c c c c c c c c c c c c c c c c c c c c c c c c c c c c c c c c c ",
"c c c c c c c c c c c c c c c c c c c c c c c c c c c c c c c c c c c c c c c c c c c c c c c c c c c c c c c c c c c c c c c c ",
"c c c c c c c c c c c c c c c c c c c c c c c c c c c c c c c c c c c c c c c c c c c c c c c c c c c c c c c c c c c c c c c c ",
"c c c c c c c c c c c c c c c c c c c c c c c c c c c c c c c c c c c c c c c c c c c c c c c c c c c c c c c c c c c c c c c c ",
"c c c c c c c c c c c c c c c c c c c c c c c c c c c c c c c c c c c c c c c c c c c c c c c c c c c c c c c c c c c c c c c c ",
"c c c c c c c c c c c c c c c c c c c c c c c c c c c c c c c c c c c c c c c c c c c c c c c c c c c c c c c c c c c c c c c c ",
"c c c c c c c c c c c c c c c c c c c c c c c c c c c c c c c c c c c c c c c c c c c c c c c c c c c c c c c c c c c c c c c c ",
"c c c c c c c c c c c c c c c c c c c c c c c c c c c c c c c c c c c c c c c c c c c c c c c c c c c c c c c c c c c c c c c c ",
"c c c c c c c c c c c c c c c c c c c c c c c c c c c c c c c c c c c c c c c c c c c c c c c c c c c c c c c c c c c c c c c c ",
"c c c c c c c c c c c c c c c c c c c c c c c c c c c c c c c c c c c c c c c c c c c c c c c c c c c c c c c c c c c c c c c c ",
"c c c c c c c c c c c c c c c c c c c c c c c c c c c c c c c c c c c c c c c c c c c c c c c c c c c c c c c c c c c c c c c c ",
"c c c c c c c c c c c c c c c c c c c c c c c c c c c c c c c c c c c c c c c c c c c c c c c c c c c c c c c c c c c c c c c c ",
"c c c c c c c c c c c c c c c c c c c c c c c c c c c c c c c c c c c c c c c c c c c c c c c c c c c c c c c c c c c c c c c c ",
"c c c c c c c c c c c c c c c c c c c c c c c c c c c c c c c c c c c c c c c c c c c c c c c c c c c c c c c c c c c c c c c c ",
"c c c c c c c c c c c c c c c c c c c c c c c c c c c c c c c c c c c c c c c c c c c c c c c c c c c c c c c c c c c c c c c c ",
"c c c c c c c c c c c c c c c c c c c c c c c c c c c c c c c c c c c c c c c c c c c c c c c c c c c c c c c c c c c c c c c c ",
"c c c c c c c c c c c c c c c c c c c c c c c c c c c c c c c c c c c c c c c c c c c c c c c c c c c c c c c c c c c c c c c c ",
"c c c c c c c c c c c c c c c c c c c c c c c c c c c c c c c c c c c c c c c c c c c c c c c c c c c c c c c c c c c c c c c c ",
"c c c c c c c c c c c c c c c c c c c c c c c c c c c c c c c c c c c c c c c c c c c c c c c c c c c c c c c c c c c c c c c c ",
"c c c c c c c c c c c c c c c c c c c c c c c c c c c c c c c c c c c c c c c c c c c c c c c c c c c c c c c c c c c c c c c c ",
"c c c c c c c c c c c c c c c c c c c c c c c c c c c c c c c c c c c c c c c c c c c c c c c c c c c c c c c c c c c c c c c c ",
"c c c c c c c c c c c c c c c c c c c c c c c c c c c c c c c c c c c c c c c c c c c c c c c c c c c c c c c c c c c c c c c c ",
"c c c c c c c c c c c c c c c c c c c c c c c c c c c c c c c c c c c c c c c c c c c c c c c c c c c c c c c c c c c c c c c c ",
"c c c c c c c c c c c c c c c c c c c c c c c c c c c c c c c c c c c c c c c c c c c c c c c c c c c c c c c c c c c c c c c c ",
"c c c c c c c c c c c c c c c c c c c c c c c c c c c c c c c c c c c c c c c c c c c c c c c c c c c c c c c c c c c c c c c c ",
"c c c c B b c c c c c c c c c c c c c c c c c c c c c c c v n i M M p p i y y c c c c c c c c c c c c c c c c c c c c c c c c c ",
"c c c c 5.f r c c c c c c c c c c c c c t c c c c c v M j h l f * % % + + @ O w 0 u y t c c c c c c c c c c c c c c c c c c c c ",
"c c c c y y.L V j b c c c c c c c c c c n n h x = , X   , H J ) C & Z & 1 3 Y =  .z.o.Z H + o 8 c c c c c c c c c c c c c c c c ",
"c c c c c c ( L W ] x i c c c c B B ! / H J | p.z.M.O.H t.1.w.+.X...>.w.H 8.<.b.%XG.G.%XOXs.Y F F * w 8 c c c c c c c c c c c c ",
"c c c c c c c X.W : L ` J f V H e.p.0.p.n.].b.>.h.w.o.t.' / O.0.a.8...) Z | a.8.p.| z.).b.m.m.q.T [ R D C d q r c c c c c c c c ",
"c c c c c c c c q S 4 K ;.P P +.u.q.R ] q.q.<.&.] -.] -.&.] <.i.<.' ] O.>.) p.X.o.<.Y 9.O.o.a.$.6 %.> 5 4.*.C A A p c c c c c c ",
"c c c c c c v N a 2 S _ [ [ ` ` ` ] >.] q.O.>.<.1.>.q.1.<.u.u.r.q.>.>.u.j.c.n.l.OX].d.a.T.E.4.- =.L.#.@.N.=..   5 ; * c c c c c ",
"c c c c c v ~ -.3.U 3 E =.y.f.S.f.j.S.x.x.n.G.H.S.P.H.S.S.S.S.H./.|.@X*X1X2X*X-X2X-X2X2X2X<X*XY.A.I.B.U.{.H.P E E 4.:.$ 8 c c c ",
"c c c c B ( E *.` T d + 9 9 9 N e.T._.Q.m.H.G.R.!./.!././.!.`..X=X#X>X%X=X-X-X#X*X=X,X,X1X,X2X{.C.Z.D.Y.XXP.D.V.XX}.3 7 t c c c ",
"c c c 5.,.I = @ 7 t c c c c c c c r N s.T.).'.).R.T.E.R.!./._.`.'.|.OX|.'.|..X&X+X%X%X+X&X@X,X`.F.7.N.V.[.:X;X1Xf.o t c c c c c ",
"c c c b o 8 c c c c c c c c c c c c c c 8 u z 6.W.$XOX!.Q.E.E.).).(.W.E.W.).'.'.'.+XOX%X%X$X>X&X+X[.Y.[. X!.u.* 8 c c c c c c c ",
"c c c c c c c c c c c c c c c c c c c c c c c c e z { b.).'.+X'.).).(.).).(.)._._.'.).E.G.!.R.V.K.;X).t.g o e c c c c c c c c c ",
"c c c c c c c c c c c c c c c c c c c c c c c c c c c t 8 j Q } t.z.M.).OX.X%X&X+X@X.XE.P.c.u.^ V w 7 e c c c c c c c c c c c c ",
"c c c c c c c c c c c c c c c c c c c c c c c c c c c c c c c c c e 8 8 0 q q q q q w 9 7 8 e c c c c c c c c c c c c c c c c c ",
"c c c c c c c c c c c c c c c c c c c c c c c c c c c c c c c c c c c c c c c c c c c c c c c c c c c c c c c c c c c c c c c c ",
"c c c c c c c c c c c c c c c c c c c c c c c c c c c c c c c c c c c c c c c c c c c c c c c c c c c c c c c c c c c c c c c c ",
"c c c c c c c c c c c c c c c c c c c c c c c c c c c c c c c c c c c c c c c c c c c c c c c c c c c c c c c c c c c c c c c c ",
"c c c c c c c c c c c c c c c c c c c c c c c c c c c c c c c c c c c c c c c c c c c c c c c c c c c c c c c c c c c c c c c c ",
"c c c c c c c c c c c c c c c c c c c c c c c c c c c c c c c c c c c c c c c c c c c c c c c c c c c c c c c c c c c c c c c c ",
"c c c c c c c c c c c c c c c c c c c c c c c c c c c c c c c c c c c c c c c c c c c c c c c c c c c c c c c c c c c c c c c c ",
"c c c c c c c c c c c c c c c c c c c c c c c c c c c c c c c c c c c c c c c c c c c c c c c c c c c c c c c c c c c c c c c c ",
"c c c c c c c c c c c c c c c c c c c c c c c c c c c c c c c c c c c c c c c c c c c c c c c c c c c c c c c c c c c c c c c c ",
"c c c c c c c c c c c c c c c c c c c c c c c c c c c c c c c c c c c c c c c c c c c c c c c c c c c c c c c c c c c c c c c c ",
"c c c c c c c c c c c c c c c c c c c c c c c c c c c c c c c c c c c c c c c c c c c c c c c c c c c c c c c c c c c c c c c c ",
"c c c c c c c c c c c c c c c c c c c c c c c c c c c c c c c c c c c c c c c c c c c c c c c c c c c c c c c c c c c c c c c c ",
"c c c c c c c c c c c c c c c c c c c c c c c c c c c c c c c c c c c c c c c c c c c c c c c c c c c c c c c c c c c c c c c c ",
"c c c c c c c c c c c c c c c c c c c c c c c c c c c c c c c c c c c c c c c c c c c c c c c c c c c c c c c c c c c c c c c c ",
"c c c c c c c c c c c c c c c c c c c c c c c c c c c c c c c c c c c c c c c c c c c c c c c c c c c c c c c c c c c c c c c c ",
"c c c c c c c c c c c c c c c c c c c c c c c c c c c c c c c c c c c c c c c c c c c c c c c c c c c c c c c c c c c c c c c c ",
"c c c c c c c c c c c c c c c c c c c c c c c c c c c c c c c c c c c c c c c c c c c c c c c c c c c c c c c c c c c c c c c c ",
"c c c c c c c c c c c c c c c c c c c c c c c c c c c c c c c c c c c c c c c c c c c c c c c c c c c c c c c c c c c c c c c c ",
"c c c c c c c c c c c c c c c c c c c c c c c c c c c c c c c c c c c c c c c c c c c c c c c c c c c c c c c c c c c c c c c c ",
"c c c c c c c c c c c c c c c c c c c c c c c c c c c c c c c c c c c c c c c c c c c c c c c c c c c c c c c c c c c c c c c c ",
"c c c c c c c c c c c c c c c c c c c c c c c c c c c c c c c c c c c c c c c c c c c c c c c c c c c c c c c c c c c c c c c c ",
"c c c c c c c c c c c c c c c c c c c c c c c c c c c c c c c c c c c c c c c c c c c c c c c c c c c c c c c c c c c c c c c c ",
"c c c c c c c c c c c c c c c c c c c c c c c c c c c c c c c c c c c c c c c c c c c c c c c c c c c c c c c c c c c c c c c c ",
"c c c c c c c c c c c c c c c c c c c c c c c c c c c c c c c c c c c c c c c c c c c c c c c c c c c c c c c c c c c c c c c c ",
"c c c c c c c c c c c c c c c c c c c c c c c c c c c c c c c c c c c c c c c c c c c c c c c c c c c c c c c c c c c c c c c c ",
"c c c c c c c c c c c c c c c c c c c c c c c c c c c c c c c c c c c c c c c c c c c c c c c c c c c c c c c c c c c c c c c c "
};
