/* XPM */
static char *_640705893837[] = {
/* columns rows colors chars-per-pixel */
"64 64 252 2 ",
"   c #1A3D1D",
".  c #153817",
"X  c #0C2C0F",
"o  c #041131",
"O  c #052A27",
"+  c #073728",
"@  c #163B27",
"#  c #0F233D",
"$  c #092A3A",
"%  c #122D3B",
"&  c #15383A",
"*  c #122F2A",
"=  c #001216",
"-  c #194E1C",
";  c #24531C",
":  c #36711B",
">  c #094829",
",  c #1B4525",
"<  c #09522B",
"1  c #18582C",
"2  c #19473C",
"3  c #1B5638",
"4  c #0E4435",
"5  c #244B29",
"6  c #23552A",
"7  c #2C532C",
"8  c #245B2D",
"9  c #2C5D29",
"0  c #335A2D",
"q  c #234536",
"w  c #2B5937",
"e  c #345F34",
"r  c #1A672E",
"t  c #2B6528",
"y  c #36672B",
"u  c #2C752C",
"i  c #37762D",
"p  c #276836",
"a  c #376836",
"s  c #387837",
"d  c #277838",
"f  c #44771C",
"g  c #46772C",
"h  c #436D39",
"j  c #457C34",
"k  c #48783A",
"l  c #48712E",
"z  c #525F2E",
"x  c #091B4A",
"c  c #050C5C",
"v  c #01095B",
"b  c #0B1B53",
"n  c #07125D",
"m  c #0A145D",
"M  c #0D1A5D",
"N  c #071755",
"B  c #111D5A",
"V  c #101F4E",
"C  c #0D234A",
"Z  c #132B48",
"A  c #143341",
"S  c #193C43",
"D  c #1A3C4A",
"F  c #153749",
"G  c #0D2253",
"H  c #0D225B",
"J  c #0A2856",
"K  c #132B53",
"L  c #13245C",
"P  c #142A5A",
"I  c #1A2A5B",
"U  c #152457",
"Y  c #1B3356",
"T  c #1C335A",
"R  c #173656",
"E  c #233F55",
"W  c #26335C",
"Q  c #262E5E",
"!  c #000066",
"~  c #050B63",
"^  c #090D63",
"/  c #040569",
"(  c #06096A",
")  c #0A0C6D",
"_  c #0B1461",
"`  c #0C116F",
"'  c #091761",
"]  c #131867",
"[  c #0E1270",
"{  c #0A1A73",
"}  c #151A74",
"|  c #191E77",
" . c #131773",
".. c #1A2269",
"X. c #1C2279",
"o. c #1B2875",
"O. c #1B3771",
"+. c #24256D",
"@. c #22297D",
"#. c #23267A",
"$. c #283876",
"%. c #2F376D",
"&. c #1C4344",
"*. c #1B4749",
"=. c #1E544A",
"-. c #1A4352",
";. c #1A4853",
":. c #214D45",
">. c #25474B",
",. c #245C46",
"<. c #235A4A",
"1. c #2C5C4C",
"2. c #275748",
"3. c #234454",
"4. c #234A53",
"5. c #284657",
"6. c #354757",
"7. c #2A5751",
"8. c #3C5759",
"9. c #34574B",
"0. c #2E6A49",
"q. c #296447",
"w. c #326E49",
"e. c #3A6C4B",
"r. c #376648",
"t. c #387647",
"y. c #366854",
"u. c #374D7C",
"i. c #345479",
"p. c #2E4E68",
"a. c #3D6F60",
"s. c #415857",
"d. c #487A47",
"f. c #467455",
"g. c #517454",
"h. c #4A4D70",
"j. c #50706F",
"k. c #6B7A5A",
"l. c #3D8435",
"z. c #3C802B",
"x. c #4A8717",
"c. c #488A29",
"v. c #559A2B",
"b. c #468837",
"n. c #568A39",
"m. c #4A943B",
"M. c #5B933B",
"N. c #579638",
"B. c #4E8F2E",
"V. c #659B3A",
"C. c #779C39",
"Z. c #719E27",
"A. c #5AA937",
"S. c #5FB436",
"D. c #69A839",
"F. c #76A739",
"G. c #65B538",
"H. c #7BB93B",
"J. c #6AAF2F",
"K. c #6CC32D",
"L. c #3D8448",
"P. c #3D8B5B",
"I. c #438544",
"U. c #498A44",
"Y. c #578945",
"T. c #4E9443",
"R. c #479140",
"E. c #579843",
"W. c #579654",
"Q. c #468950",
"!. c #668848",
"~. c #699745",
"^. c #769A44",
"/. c #679057",
"(. c #7BA644",
"). c #7DBD46",
"_. c #67AE4C",
"`. c #598377",
"'. c #4D9075",
"]. c #64996F",
"[. c #638C70",
"{. c #69A36E",
"}. c #75AC6F",
"|. c #57A14D",
" X c #8CAC3E",
".X c #89BB35",
"XX c #9CB93A",
"oX c #90B230",
"OX c #A2BA3B",
"+X c #A1BF32",
"@X c #95C834",
"#X c #ADC335",
"$X c #B5C933",
"%X c #85A943",
"&X c #96B644",
"*X c #8CB352",
"=X c #9CBF61",
"-X c #A4B86A",
";X c #919F72",
":X c #97C64D",
">X c #A8CB4C",
",X c #9CC863",
"<X c #B3D160",
"1X c #252D81",
"2X c #2A2E80",
"3X c #2A3483",
"4X c #2F3986",
"5X c #333E89",
"6X c #343987",
"7X c #184D8A",
"8X c #38468C",
"9X c #28578C",
"0X c #3B5585",
"qX c #3D4991",
"wX c #225391",
"eX c #356390",
"rX c #3A7394",
"tX c #286B91",
"yX c #414F92",
"uX c #465595",
"iX c #4C5D9A",
"pX c #585A97",
"aX c #4C6584",
"sX c #51639D",
"dX c #54708E",
"fX c #7D7F86",
"gX c #5869A5",
"hX c #4478B1",
"jX c #6479A8",
"kX c #6A6AA6",
"lX c #505CA1",
"zX c #3C939B",
"xX c #4E8B8E",
"cX c #678B8E",
"vX c #73A98C",
"bX c #728AB0",
"nX c #5EA7BC",
"mX c #7CA5A9",
"MX c #53979A",
"NX c #7489C1",
"BX c #87AB8B",
"VX c #AA9FA3",
"CX c #91B1B4",
"ZX c #A6BDB5",
"AX c #94C590",
"SX c #84C8A2",
"DX c #ADCBB3",
"FX c #B4D097",
"GX c #B3B3CC",
"HX c #9899C2",
"JX c #DAE2E6",
"KX c #D3DED3",
/* pixels */
"! ! ! ! ! ! ! ! ! ! ! ! ! ! ! ! ! ! ! ! ! ! ! ! ! ! ! ! ! ! ! 8XVXi.! ! ! ! ! ! ! ! ! ! ! ! ! ! } 5X` ! ! ! ! ! ! ! ! ! ! ! ! ! ",
"! ! ! ! ! ! ! ! ! ! ! ! ! ! ! ! ! ! ! ! ! ! ! ! ! ^ ] ! ! ! ! 9XtXrX] ! ! ! 3X) ! ! ! ! ! ! ! ! ) X.! ! ! ! ! ! ! ! ! ! ! ! ! ! ",
"! ! ! ! ! ! ! ! ! ! ! ! ! ! ! ! ! ! ! ! ! ! ! ! ! ^ f.+.! ! ! o.9Xh.( ! ! / X.! ! ! ! ! ! ! ! ! ! ! ! ! ! ! ! ! ! ! ! ! ! ! ! ! ",
"! ! ! ! ! ! ! ! ! ! ! ! ! ! ! ! ! ! ! ! ! ! ! ! ! ! M =X] ! ! ! ! ! ! ! ! ! ! 4XX.! ! ! ! ! ! ! ! ! ! ! ! ! ! ! ! ! ! ! ! ! ! ! ",
"! ! ! ! ! ! ! ! ! ! ! ! ! ! ! ! ! ! ! ! ! ! ! ! ! ! ! s -X! ! ! ! ! ! ! ! ! 3XuXjX4X! ! ! ! ) ) X. .! ! ! ! ! ! ! ! ! ! ! ! ! ! ",
"! ! ! ! ! ! ! ! ! ! ! ! ! ! ! ! ! ! ! ! ! ! ! ! ! ! ! U /.! ! ! ! ! ! ! ! ! uX| bXiX! ! ! ! @.| 1X5X( ! ! ( ( ! ! ! ! ! ! ! ! ! ",
"! ! ! ! ! ! ! ! ! ! ! ! ! ! ! ! ! ! ! ! ! ! ! ! ! ! ! j.E ! ! ! ! ! ^ ! ! ! } bXjX/ | 3X! ! ) 5X5X| 4X) ! ! ( ! ! ! ! ! ! ! ! ! ",
"! ! ! ! ! ! ! ! ! ! ! ! ! ! ! ! ! ! ! ! ! ! ! ~ _ ! ! ;XE ! ! ! ! / ! / _ ! ! ! ! X.} 3XqX( ! ! ! / [ / ! / | 3X[ ! ! ! ! ! ! ! ",
"! ! ! ! ! ! ! ! ! ! ! ! ! ! ! ! ! ! ! ! ! ! ! n 3.! ( s.y.! ! ! ! ! L M _ ! ! ! X.@.! ! iX3X! ! ! ! ! ! ! ) @.uX1X! ! ! ! ! ! ! ",
"! ! ! ! ! ! ! ! ! ! ! ! ! ! ! ! ! ! ! ! ! ! ! n e.! Y ' s.! ! ! ! I I ! ! ! ! ! [ uX} | gX} ! ! ! ! ! ! ! ! 1X2X! ( ` ! ! ! ! ! ",
"! ! ! ! ! ! ! ! ! ! ! ! ! ! ! ! ! ! ! ! ! ! ! ;.n.! M d.6.! ! ! ^ Y ~ ! ! ! ! ! ! @.iXsXX.! ! ! ! ! ! ! ! ! ! ! @.GXdX+.! ~ ! ! ",
"! ! ! ! ! ! ! ! ! ! ! ! ! ! ! ! ! ! ! ! ! ! ! 0.M.! ~ :X>.! ! ~ B M ! ! ! ! 5X1X! ! ! ! ! ! ! ! ! ! ! ! ! ! ! ! tXfXtXi.pXiX..! ",
"! ! ! ! ! ! ! ! ! ! ! ! ! ! ! ! ! ! ! ! ! ! ~ L.N.! ) /.C ! ! L T M ! ! ! X.cXu.! ! ! ! ! ! ! ! ! ! ! ! ! ! ! ! 7XwX9XdXxXrX9X! ",
"! ! ! ! ! ! ! ! ! ! ! ! ! ! ! ! ! ! ! ! ! ! c R.v.! ] W.2 ! ^ M M m ! ! ! ( uXaX! ! ! ! ! ! ! ! ! ! ! ! !  .1X! ( h.h.+.7XaX%.! ",
"! ! ! ! ! ! ! ! ! ! ! ! ! ! ! ! ! ! ! ! ! ! ~ m.A./ ! =Xs ! ! U ! ! qXlX} ! ! CXF ! ! ! ! ! ! ! ! ! ! ! ! | 8X( / ! ! ! ^ +.( ! ",
"! ! ! ! ! ! ! ! ! ! ! ! ! ! ! ! ! ! ! ! ! ! _ m.G.^ / *X>XQ Y W ! ! gXNX5X! ! $.w ! ! ! ! ! ! ! ! ! ( #.[ ! X.[ ! ! ! ! ! ! ! ! ",
"! ! ! ! ! ! ! ! ! ! ! ! ! ! ! ! ! ! ! ! ! ! ~ L.G.P / U.=X!.M./ ! ! ! ] M k.] c 2.! ! ! ! ! ! ! ! ! ( 5X} ! ! ! ! ! ! ! ! ! ! ! ",
"! ! ! ! ! ! ! ! ! ! ! ! ! ! ! ! ! ! ! ! ! ! ~ l.G...! A.(.+ g ! ! ! ! G v W k._ :.! ! ! ! ! ! ! ! ! ! ( / ! ! ! ! ! ! ! ! ! ! ! ",
"! ! ! ! ! ! ! ! ! ! ! ! ! ! ! ! _ ! ! ! ! ! / w.S.T ~ S.V.s g.! ! ! ! Y r.K 6.I K ! ! ! ! ! [ ) ! ! ! ! ! ! ! ! ! ! ! ! ( ! ! ! ",
"! ! ! ! ! ! ! ! ! ! ! ! ! ! ! ! ..^ ! ! ! ! / 0.S.T n S.D.k g.v ! ! ! G v.j dXp.! ! ! ! ! ! jXuX! ! ! ! ! ! ! ! ! ! ! ( 5X( ! ! ",
"! ! ! ! ! ! ! ! ! ! ! ! ! ! ! ! E B ! ! ! ! ! w.G.T P K.H.a F.! ! ! ! % m.AXDXZ ! ! ! ! ! ! } [ ! ! ! ! ! ! ! ! ! ! ! ! ) ! ! ! ",
"! ! ! ! ! ! ! ! ! ! ! ! ! ! ! ! P L ! ! ! ! ! ;.E.<.q.K.Y.k.^.~ ! ! ! - vXDXFX~ ! ! ! ! ! ! ! ! ! ! ! ! X./ ! ! ! ! ! ! ! ! ! ! ",
"! ! ! ! ! ! ! ! ! ! ! ! ! ! ! ! O.W ! ! ! ^ ! ! K L.m.G.g.%XU ! ! ! % ; cXaX,X( ! ! ! ! ! ! ! ! ! ! ! ) iXX.! ! ! ! ! ! ! ! ! ! ",
"! ! ! ! ! ! ! ! ! ! ! ! ! ! ! { zXcX! ! ! m 3.! ~ 0.A.A.^.g ..! ! n , c.W o.v. X[ ! ! ! ! ! ! ! ! ! | gX1X/ ! ! ! ! ! ! ! ! ! ! ",
"! ! ! ! ! ! ! ! ! ! ! ! ! ! ! [ uX}.B ! ! ! 3.! c w.S.).8 < 3.! ! @ a E.! / u }.FX+.! ! ! ! ! ! ! X.iXqX8X) ! ! ! ! ! ! ! ! ! ! ",
"! ! ! ! ! ! ! ! ! ! ! ! ! ! ! ! ! 8.&.! ! ! D ! M v.A.s O w E ! ! 6 a 0 ! $.: |.AX<X..! ! ! ! ! ! 3XuX! 3X} ! ! ! ! ! ! ! ! ! ! ",
"! ! ! ! ! ! ! ! ! ! ! ! ! ! ! ! ! M 9.! ! ! :...w.|.W.t > >.E ! ! 7 w & ! cXx.m.L.A.>X' ! ! ! ! ! / 5X4X[ ! ! ! ! ! ! ! ! ! ! ! ",
"! ! ! ! ! ! ! ! ! ! ! ! ! ! ! ! ! ! d.M ! ~ <.4.l.}.AX8 r :.T ' ! & y K ! d.T.z.l.< (.&X! ! ! ! ! ! ! ) ! ( | ! ! ! ! ! ! ! ! ! ",
"! ! ! ! ! ! ! ! ! ! ! ! ! ! ! ! ! ! d.f.! x t.;.l.).Y.r j j 9.' ! x a M ! ~.}.l.N.r s >X_ ! ! ! ! ! ! ! ! ) 3X1X` ! ! ! ! ! ! ! ",
"! ! ! ! ! ! ! ! ! ! ! ! ! ! ! ! ! ! 7.U.! 0.4.H |.A.t p ~.D.B...! c h 5.M M.~.M.b.s 3 (.W ! ! ! ! ! ! ! ! / yX} X.( ! ! ! ! ! ! ",
"! ! ! ! ! ! ! ! ! ! ! ! ! ! ! ! ! ! M e.4.R.! H A.d.t n.n.F. Xd.! v 7 Y.h v.D.N.b.L.< F.W ! ! ! ! ( @.) ! ! 3X3X ./ ! ! ! ! ! ! ",
"! ! ! ! ! ! ! ! ! ! ! ! ! ! ! ! ! ! ! s c.n ! H T.r.u V.(.n.XX@X_ ! . 9 l V.D.n.b.b.> F...! ! ! ! / X./ ! ! ! | / ! ! ! ! ! ! ! ",
"! ! ! ! ! ! ! ! ! ! ! ! ! ! ! ! ! ! ! Q.[.! ! N I.r.j n.XX XC.#X%Xc 4 [.k v.F.n.b.s 1 %X! c ! ! ! ! ! ! ! ! ! ! ! ! ! ! ! ! ! ! ",
"! ! ! ! ! ! ! ! ! ! ! ! ! ! ! ! ! / o.}.f.! ! ~ s Y.C.C.C.OXOX#X$XC.[.CXxXc.V.V.n.1 l.f.w -.1XbX..! ! X.X.! ! ! ! ! ! ! ! ! ! ! ",
"! ! ! ! ! ! ! ! ! ! ! ! ! ! ! ! ! ! 9XAX{.1X! $.f.m.F.%X%XOX$X$X$X+X}.'.h.8.c.V.l.< N.Z.k ( hXdX0X! ! X.X.! ! ! ! ! ! ! ! ! ! ! ",
"! ! ! ! ! ! ! ! ! ! ! ! ! ! ! ! ! ! J vXBX/ { mXMXt.V.%X&XOX$X$X+XOXF.*X( B y V.p p oXoX! ! wXtXh.! ! / ! ! ! ! ! ! ! ! ! ! ! ! ",
"! ! ! ! ! ! ! ! ! ! ! ! ! ! ! ! ! _ ;.p x.! ( rX;X5.5.F.%X XOXOXOX XF..X' O a n.p m.V.oX~ ! ! +.! ! ! ! ! ! ! ! ! ! ! ! ! ! ! ! ",
"! ! ! ! ! ! ! ! ! ! ! ! ! ! ! ~ 3.>.&.s T.~ ! o.5.K 8..XF.:X X X X X~..Xh @ k s s G q .XI ! ! ! ! ! ! ! ! ! ! ! ! ! ! ! ! ! ! ! ",
"! ! ! ! ! ! ! ! ! ! ! ! ! ! ! Y 4.! ! -.l.a  .! Z =.T.(.&X(.^. X(.V.M.D.g & h y T.! q oXW ^ c ! ! ! ! ! ! ! ! ! ! ! ! ! ! ! ! ! ",
"! ! ! ! ! ! ! ! ! ! ! ! ! ! ! M ! ( qX8Xp B.dX` U.v.7.! 6.M.!.~.V.].{.m.t Z z f p.uXF.@X! b 2.! ! ! ! ! ! ! ! ! ! ! ! ! ! ! ! ! ",
"! ! ! ! ! ! ! ! ! ! ! ! ! ! ! ~ ! / } ) 3 1.p._.A.t.! ! 9.@Xk j {.].L.'.q 9.~.n.a C.C.W ! N p ! ) ! ! ! ! ! ! ! ! ! ! ! ! ! ! ! ",
"! ! ! ! ! ! #.) ! ! ! ! ! ! _ i.! ! ! ! *.U.v.s 0.e.! ! R :XD.y xXxXP.MX. j.DX`.x.V.m ! ! % p ! (.P ! ! ! ! ! ! ! ! ! ! ! ! ! ! ",
"! ! ! ! ! kXGX6X! ! ! ! ( } gX0X3X[ ! ! R G.7.4.q.t.! ! J d.).V.G.SXnXP.; a BXj.B.w ! ! v p s./.D.R ! ! ! ! ! ! ! ! ! ! ! ! ! ! ",
"! ! ! ! ! kXGX6X! ! ! ! 6XHXHX! jX2X! ! e.t.H H 0.I.( ! *.0.=.Q.g Z.u r k 5 h g.M.6.] W !.:X>X@Xm.H ! ! ! ! ! ! ! ! ! ! ! ! ! ! ",
"! ! ! ! ! ! #.` ! ! ! ! 6X5XlXbXuX! ! B T.q.P ' t.t.T ! <.q.t.c.= l U.3 k & a V.M.V.M.N.).K.J.m.l./ ! ! ! ! ! ! ! ! ! ! ! ! ! ! ",
"! ! ! ! ! ! ! ! ! ! ! ! ! ! ! _ ! ! ! y.U.<.M M w.d.-.^ <.=.T.>.* ; b.8 y C r.i > 3 w p p d b.E.4.! ! ! ! ! ! ! ! ! ! ! ! ! ! { ",
"! ! ! ! ! ! ! ! ! ! ! ! ! ! ! v _ ! ! Q.w.<.! R <.1.;.R <.=.G.! o   n.9 @ h a + a d.k Y.~.~.F.N.~ ! ! ! ! ! ! ! ! ! ! ! ! ! ! { ",
"! ! ! ! ! ! ! ! ! ! ! ! ! ! ! ! ! ! p.u q.R ! P *.4.4.<.=.q.m.! o   j 7 5 g > 9 h k n.M.M.D.N.U ! ! ! ! ! ! ! ! ! ! ! ! ! ! ! ! ",
"! ! ! ! ! ! ! ! ! ! ! ! ! #.pX! ! $.JXp =.R ! M *.*.F q.*.t a.( C X j 5 t t @ 8 k Y.M.M.F.V.q ! ! ! ! ! ! ! ! ! ! ! ! ! ! ! ! ! ",
"! ! ! ! ! ! ! ! ! ! ! ! ! 1XpX/ ! %.ZXr.*.<.~ ! $ a.aX0.x 8.KXsXp.X 6 % 7 y > 8 a h M.D.V.y ~ ! ! ! ! ! ! ! ! ! ! ! ! ! ! ! ! ! ",
"! ! ! ! ! ! ! ! ! ! ! ! ! ! ! ! ~ ! 1.=.<.4 S 0Xj.`.mXa ! 7XmXwXa.. 6 x 7 B.@ 6 8 i n.l q c ! ! ! ! ! ! ! ! ! ! ! ! ! ! ! ! ! ! ",
"! ! ! ! ! ! ! ! ! ! ! ! ! ! ! ! M M <.q.2 K jXiXi.j.`.1.~ p.zX0Xz . 0 n w i @ 5 7 7 % V ! v ! ! ! ! ! ! ! ! ! ! ! ! ! ! ! ! ! ! ",
"! ! ! ! ! ! ! ! ! ! ! ! ! ! ! ! E ..4.<.4 ] 5X$.4.cXj.q.Z Z j.h.X   w H i . 0 0 1 = ! ` ^ ! ! ! ! ! ! ! ! ! ! ! ! ! ! ! ! ! ! ! ",
"! ! ! ! ! ! ! ! ! ! ! ! ! ! ! ! e.H ;.;.-.+ 4.sXj.a.y.:.J m 2.# . - 3.0.q & 0 e , N 9.e.v ! ! ! ! ! ! ! ! ! ! ! ! ! ! ! ! ! ! ! ",
"! ! ! ! ! ! ! ! ! ! ! ! ! ! ! ! T.' -.-.K =.S ! F & 4 =.H ! 0.*   , w a _ & 7 0 @ I._.~ ! ! ! ! ! ! ! ! ! ! ! ! ! ! ! ! ! ! _ ( ",
"! ! ! ! ! ! ! ! ! ! ! ! ! ! ! ( N.^ R *.F *.D G &.D *.*.K ! y.b * 9 s C ! , 0 5 8 T.L ! ! ! ! ! ! ! ! ! ! ! ! ! ! ! ! ! ! ! M Y ",
"! ! ! ! ! ! ! ! ! ! ! ! ! ! ! ( T.' M =.S &.S *.&.K F &.D ! y.n x a i N P , 7 5 w...! ! ! ! ! ! ! ! ! ! ! ! ! ! ! ! ! ! ! ! ! ..",
"! ! ! ! ! ! ! ! ! ! ! ! ! ! ! ! U.T ~ *.&.&.&.&.& G K S &.! R >.% s 0 1.t.  7 5 ~ ! ! ! ! ! ! ! ! ! ! ! ! ! ! ! ! ! ! ! ! ! ! ! ",
"! ! ! ! ! ! ! ! ! ! ! ! ! ! ! ! d.0.! S A &.S S S m C S S c ~ q.2 w.w ,.5   5 # ! ! ! ! ! ! ! ! ! ! ! ! ! ! ! ! ! ! ! ! ! ! ! ! ",
"! ! ! ! ! ! ! ! ! ! ! ! ! ! ! ! 4.L.~ Z & &.S A S ! C A S b ! <.q.0.,., . , @ ! ! ! ! ! ! ! ! ! ! ! ! ! ! ! ! ! ! ! ! ! ! ! ! ! ",
"! ! ! ! ! ! ! ! ! ! ! ! ! ! ! ! ^ t.P G % S S A b ! C A S V ! *.1.2.q   @ , c ! ! ! ! ! ! ! ! ! ! ! ! ! ! ! ! ! ! ! ! ! ! ! ! ! ",
"! ! ! ! ! ! ! ! ! ! ! ! ! ! ! ! ! 1.w.D # S S A c ! b A A C ! R 2.& .     # ! ! ! ! ! ! ! ! ! ! ! ! ! ! ! ! ! ! ! ! ! ! ! ! ! ! ",
"! ! ! ! ! ! ! ! ! ! ! ! ! ! ! ! ! ^ q.,.A A S A N ! b & % A ! G *.%       # ! ! ! ! ! ! ! ! ! ! ! ! ! ! ! ! ! ! ! ! ! ! ! ! ! ! ",
"! ! ! ! ! ! ! ! ! ! ! ! ! ! ! ! ! ! H R K b N b c ! c b b b ! ^ G x # # # x ! ! ! ! ! ! ! ! ! ! ! ! ! ! ! ! ! ! ! ! ! ! ! ! ! ! "
};
